G04 MADE WITH FRITZING*
G04 WWW.FRITZING.ORG*
G04 DOUBLE SIDED*
G04 HOLES PLATED*
G04 CONTOUR ON CENTER OF CONTOUR VECTOR*
%ASAXBY*%
%FSLAX23Y23*%
%MOIN*%
%OFA0B0*%
%SFA1.0B1.0*%
%ADD10C,0.088000*%
%ADD11C,0.049370*%
%ADD12C,0.148425*%
%ADD13C,0.105000*%
%ADD14C,0.061496*%
%ADD15C,0.072000*%
%ADD16R,0.105000X0.105000*%
%ADD17R,0.069055X0.065118*%
%ADD18R,0.001000X0.001000*%
%LNMASK1*%
G90*
G70*
G54D10*
X1701Y635D03*
X1501Y635D03*
G54D11*
X526Y260D03*
G54D10*
X1701Y310D03*
X1601Y310D03*
X1501Y310D03*
G54D12*
X276Y2235D03*
G54D13*
X767Y2235D03*
G54D14*
X756Y2125D03*
G54D15*
X226Y585D03*
X226Y685D03*
X226Y785D03*
X226Y885D03*
X226Y985D03*
X226Y1085D03*
X226Y1185D03*
X226Y1285D03*
X226Y1385D03*
G54D12*
X976Y2235D03*
G54D15*
X226Y1485D03*
X226Y1585D03*
X226Y1685D03*
X226Y1785D03*
X226Y1885D03*
X226Y1985D03*
X226Y2085D03*
X1026Y1685D03*
X1026Y1585D03*
X1026Y1485D03*
X1026Y1385D03*
X1026Y1285D03*
X1026Y1185D03*
X1026Y1085D03*
X1026Y985D03*
X1026Y885D03*
X1026Y785D03*
X1026Y685D03*
X1026Y585D03*
G54D14*
X496Y2125D03*
G54D13*
X484Y2235D03*
G54D10*
X76Y2085D03*
X76Y1985D03*
X76Y1885D03*
X76Y1785D03*
X76Y1685D03*
X76Y1585D03*
G54D11*
X423Y1188D03*
X2226Y662D03*
X1376Y1261D03*
X751Y1809D03*
X1802Y585D03*
X2076Y609D03*
X575Y886D03*
X1126Y410D03*
X1126Y660D03*
X626Y985D03*
X1201Y435D03*
X1201Y735D03*
G54D10*
X1476Y1135D03*
X1576Y1135D03*
X1676Y1135D03*
X1776Y1135D03*
X1876Y1135D03*
X1976Y1135D03*
X2076Y1135D03*
X2176Y1135D03*
G54D11*
X701Y1085D03*
X1275Y485D03*
X1776Y810D03*
X825Y585D03*
X974Y186D03*
X2226Y385D03*
X1400Y987D03*
X2325Y959D03*
X2325Y561D03*
X302Y1687D03*
X301Y2110D03*
X350Y1635D03*
X350Y2061D03*
X1301Y2160D03*
X1301Y2285D03*
X1976Y1310D03*
X2126Y560D03*
G54D10*
X2126Y2135D03*
X2126Y2035D03*
X2126Y1935D03*
X2126Y1835D03*
X2126Y1735D03*
X2126Y1635D03*
X2126Y1535D03*
X2126Y1435D03*
X2126Y2135D03*
X2126Y2035D03*
X2126Y1935D03*
X2126Y1835D03*
X2126Y1735D03*
X2126Y1635D03*
X2126Y1535D03*
X2126Y1435D03*
X2226Y1435D03*
X2226Y1535D03*
X2226Y1635D03*
X2226Y1735D03*
X2226Y1835D03*
X2226Y1935D03*
X2226Y2035D03*
X2226Y2135D03*
X1926Y2135D03*
X1926Y2035D03*
X1926Y1935D03*
X1926Y1835D03*
X1926Y1735D03*
X1926Y1635D03*
X1926Y1535D03*
X1926Y1435D03*
X1926Y2135D03*
X1926Y2035D03*
X1926Y1935D03*
X1926Y1835D03*
X1926Y1735D03*
X1926Y1635D03*
X1926Y1535D03*
X1926Y1435D03*
X2026Y1435D03*
X2026Y1535D03*
X2026Y1635D03*
X2026Y1735D03*
X2026Y1835D03*
X2026Y1935D03*
X2026Y2035D03*
X2026Y2135D03*
X1726Y2135D03*
X1726Y2035D03*
X1726Y1935D03*
X1726Y1835D03*
X1726Y1735D03*
X1726Y1635D03*
X1726Y1535D03*
X1726Y1435D03*
X1726Y2135D03*
X1726Y2035D03*
X1726Y1935D03*
X1726Y1835D03*
X1726Y1735D03*
X1726Y1635D03*
X1726Y1535D03*
X1726Y1435D03*
X1826Y1435D03*
X1826Y1535D03*
X1826Y1635D03*
X1826Y1735D03*
X1826Y1835D03*
X1826Y1935D03*
X1826Y2035D03*
X1826Y2135D03*
X1526Y2135D03*
X1526Y2035D03*
X1526Y1935D03*
X1526Y1835D03*
X1526Y1735D03*
X1526Y1635D03*
X1526Y1535D03*
X1526Y1435D03*
X1526Y2135D03*
X1526Y2035D03*
X1526Y1935D03*
X1526Y1835D03*
X1526Y1735D03*
X1526Y1635D03*
X1526Y1535D03*
X1526Y1435D03*
X1626Y1435D03*
X1626Y1535D03*
X1626Y1635D03*
X1626Y1735D03*
X1626Y1835D03*
X1626Y1935D03*
X1626Y2035D03*
X1626Y2135D03*
G54D16*
X767Y2235D03*
X484Y2235D03*
G54D17*
X2326Y1880D03*
X2326Y1960D03*
G54D18*
X449Y2151D02*
X520Y2151D01*
X730Y2151D02*
X801Y2151D01*
X449Y2150D02*
X520Y2150D01*
X730Y2150D02*
X801Y2150D01*
X449Y2149D02*
X520Y2149D01*
X730Y2149D02*
X801Y2149D01*
X449Y2148D02*
X520Y2148D01*
X730Y2148D02*
X801Y2148D01*
X449Y2147D02*
X520Y2147D01*
X730Y2147D02*
X801Y2147D01*
X449Y2146D02*
X520Y2146D01*
X730Y2146D02*
X801Y2146D01*
X449Y2145D02*
X520Y2145D01*
X730Y2145D02*
X801Y2145D01*
X449Y2144D02*
X520Y2144D01*
X730Y2144D02*
X801Y2144D01*
X449Y2143D02*
X520Y2143D01*
X730Y2143D02*
X801Y2143D01*
X449Y2142D02*
X520Y2142D01*
X730Y2142D02*
X801Y2142D01*
X449Y2141D02*
X490Y2141D01*
X500Y2141D02*
X520Y2141D01*
X730Y2141D02*
X750Y2141D01*
X760Y2141D02*
X801Y2141D01*
X449Y2140D02*
X487Y2140D01*
X503Y2140D02*
X520Y2140D01*
X730Y2140D02*
X747Y2140D01*
X763Y2140D02*
X801Y2140D01*
X449Y2139D02*
X486Y2139D01*
X504Y2139D02*
X520Y2139D01*
X730Y2139D02*
X746Y2139D01*
X764Y2139D02*
X801Y2139D01*
X449Y2138D02*
X485Y2138D01*
X506Y2138D02*
X520Y2138D01*
X730Y2138D02*
X744Y2138D01*
X765Y2138D02*
X801Y2138D01*
X449Y2137D02*
X483Y2137D01*
X507Y2137D02*
X520Y2137D01*
X730Y2137D02*
X743Y2137D01*
X767Y2137D02*
X801Y2137D01*
X449Y2136D02*
X483Y2136D01*
X508Y2136D02*
X520Y2136D01*
X730Y2136D02*
X742Y2136D01*
X767Y2136D02*
X801Y2136D01*
X449Y2135D02*
X482Y2135D01*
X508Y2135D02*
X520Y2135D01*
X730Y2135D02*
X742Y2135D01*
X768Y2135D02*
X801Y2135D01*
X449Y2134D02*
X481Y2134D01*
X509Y2134D02*
X520Y2134D01*
X730Y2134D02*
X741Y2134D01*
X769Y2134D02*
X801Y2134D01*
X449Y2133D02*
X481Y2133D01*
X510Y2133D02*
X520Y2133D01*
X730Y2133D02*
X740Y2133D01*
X769Y2133D02*
X801Y2133D01*
X449Y2132D02*
X480Y2132D01*
X510Y2132D02*
X520Y2132D01*
X730Y2132D02*
X740Y2132D01*
X770Y2132D02*
X801Y2132D01*
X449Y2131D02*
X480Y2131D01*
X511Y2131D02*
X520Y2131D01*
X730Y2131D02*
X739Y2131D01*
X770Y2131D02*
X801Y2131D01*
X449Y2130D02*
X479Y2130D01*
X511Y2130D02*
X520Y2130D01*
X730Y2130D02*
X739Y2130D01*
X771Y2130D02*
X801Y2130D01*
X449Y2129D02*
X479Y2129D01*
X511Y2129D02*
X520Y2129D01*
X730Y2129D02*
X739Y2129D01*
X771Y2129D02*
X801Y2129D01*
X449Y2128D02*
X479Y2128D01*
X511Y2128D02*
X521Y2128D01*
X729Y2128D02*
X739Y2128D01*
X771Y2128D02*
X801Y2128D01*
X449Y2127D02*
X479Y2127D01*
X511Y2127D02*
X521Y2127D01*
X729Y2127D02*
X739Y2127D01*
X771Y2127D02*
X801Y2127D01*
X449Y2126D02*
X479Y2126D01*
X511Y2126D02*
X521Y2126D01*
X729Y2126D02*
X739Y2126D01*
X771Y2126D02*
X801Y2126D01*
X449Y2125D02*
X479Y2125D01*
X511Y2125D02*
X521Y2125D01*
X729Y2125D02*
X739Y2125D01*
X771Y2125D02*
X801Y2125D01*
X449Y2124D02*
X479Y2124D01*
X511Y2124D02*
X521Y2124D01*
X729Y2124D02*
X739Y2124D01*
X771Y2124D02*
X801Y2124D01*
X449Y2123D02*
X479Y2123D01*
X511Y2123D02*
X521Y2123D01*
X729Y2123D02*
X739Y2123D01*
X771Y2123D02*
X801Y2123D01*
X449Y2122D02*
X479Y2122D01*
X511Y2122D02*
X520Y2122D01*
X730Y2122D02*
X739Y2122D01*
X771Y2122D02*
X801Y2122D01*
X449Y2121D02*
X480Y2121D01*
X511Y2121D02*
X520Y2121D01*
X730Y2121D02*
X739Y2121D01*
X770Y2121D02*
X801Y2121D01*
X449Y2120D02*
X480Y2120D01*
X510Y2120D02*
X520Y2120D01*
X730Y2120D02*
X740Y2120D01*
X770Y2120D02*
X801Y2120D01*
X449Y2119D02*
X480Y2119D01*
X510Y2119D02*
X520Y2119D01*
X730Y2119D02*
X740Y2119D01*
X770Y2119D02*
X801Y2119D01*
X449Y2118D02*
X481Y2118D01*
X509Y2118D02*
X520Y2118D01*
X730Y2118D02*
X741Y2118D01*
X769Y2118D02*
X801Y2118D01*
X449Y2117D02*
X482Y2117D01*
X509Y2117D02*
X520Y2117D01*
X730Y2117D02*
X741Y2117D01*
X768Y2117D02*
X801Y2117D01*
X449Y2116D02*
X482Y2116D01*
X508Y2116D02*
X520Y2116D01*
X730Y2116D02*
X742Y2116D01*
X768Y2116D02*
X801Y2116D01*
X449Y2115D02*
X483Y2115D01*
X507Y2115D02*
X520Y2115D01*
X730Y2115D02*
X743Y2115D01*
X767Y2115D02*
X801Y2115D01*
X449Y2114D02*
X484Y2114D01*
X506Y2114D02*
X520Y2114D01*
X730Y2114D02*
X744Y2114D01*
X766Y2114D02*
X801Y2114D01*
X449Y2113D02*
X486Y2113D01*
X505Y2113D02*
X520Y2113D01*
X730Y2113D02*
X745Y2113D01*
X764Y2113D02*
X801Y2113D01*
X449Y2112D02*
X487Y2112D01*
X503Y2112D02*
X520Y2112D01*
X730Y2112D02*
X747Y2112D01*
X763Y2112D02*
X801Y2112D01*
X449Y2111D02*
X490Y2111D01*
X501Y2111D02*
X520Y2111D01*
X730Y2111D02*
X749Y2111D01*
X760Y2111D02*
X801Y2111D01*
X449Y2110D02*
X520Y2110D01*
X730Y2110D02*
X801Y2110D01*
X449Y2109D02*
X520Y2109D01*
X730Y2109D02*
X801Y2109D01*
X449Y2108D02*
X520Y2108D01*
X730Y2108D02*
X801Y2108D01*
X449Y2107D02*
X520Y2107D01*
X730Y2107D02*
X801Y2107D01*
X449Y2106D02*
X520Y2106D01*
X730Y2106D02*
X801Y2106D01*
X449Y2105D02*
X520Y2105D01*
X730Y2105D02*
X801Y2105D01*
X449Y2104D02*
X520Y2104D01*
X730Y2104D02*
X801Y2104D01*
X449Y2103D02*
X520Y2103D01*
X730Y2103D02*
X801Y2103D01*
X449Y2102D02*
X520Y2102D01*
X730Y2102D02*
X801Y2102D01*
X449Y2101D02*
X520Y2101D01*
X730Y2101D02*
X801Y2101D01*
X494Y2100D02*
X496Y2100D01*
X754Y2100D02*
X756Y2100D01*
X1245Y1876D02*
X1255Y1876D01*
X1240Y1875D02*
X1260Y1875D01*
X1237Y1874D02*
X1263Y1874D01*
X1234Y1873D02*
X1265Y1873D01*
X1232Y1872D02*
X1268Y1872D01*
X1230Y1871D02*
X1269Y1871D01*
X1229Y1870D02*
X1271Y1870D01*
X1227Y1869D02*
X1272Y1869D01*
X1226Y1868D02*
X1274Y1868D01*
X1225Y1867D02*
X1275Y1867D01*
X1223Y1866D02*
X1276Y1866D01*
X1222Y1865D02*
X1277Y1865D01*
X1221Y1864D02*
X1278Y1864D01*
X1221Y1863D02*
X1279Y1863D01*
X1220Y1862D02*
X1280Y1862D01*
X1219Y1861D02*
X1281Y1861D01*
X1218Y1860D02*
X1282Y1860D01*
X1217Y1859D02*
X1282Y1859D01*
X1217Y1858D02*
X1283Y1858D01*
X1216Y1857D02*
X1284Y1857D01*
X1216Y1856D02*
X1284Y1856D01*
X1215Y1855D02*
X1285Y1855D01*
X1214Y1854D02*
X1285Y1854D01*
X1214Y1853D02*
X1286Y1853D01*
X1214Y1852D02*
X1286Y1852D01*
X1213Y1851D02*
X1287Y1851D01*
X1213Y1850D02*
X1287Y1850D01*
X1212Y1849D02*
X1287Y1849D01*
X1212Y1848D02*
X1288Y1848D01*
X1212Y1847D02*
X1288Y1847D01*
X1212Y1846D02*
X1288Y1846D01*
X1211Y1845D02*
X1288Y1845D01*
X1211Y1844D02*
X1289Y1844D01*
X1211Y1843D02*
X1289Y1843D01*
X1211Y1842D02*
X1289Y1842D01*
X1211Y1841D02*
X1289Y1841D01*
X1211Y1840D02*
X1289Y1840D01*
X1210Y1839D02*
X1289Y1839D01*
X1210Y1838D02*
X1289Y1838D01*
X1210Y1837D02*
X1289Y1837D01*
X1210Y1836D02*
X1289Y1836D01*
X1210Y1835D02*
X1289Y1835D01*
X1210Y1834D02*
X1289Y1834D01*
X1211Y1833D02*
X1289Y1833D01*
X1211Y1832D02*
X1289Y1832D01*
X1211Y1831D02*
X1289Y1831D01*
X1211Y1830D02*
X1289Y1830D01*
X1211Y1829D02*
X1289Y1829D01*
X1211Y1828D02*
X1288Y1828D01*
X1212Y1827D02*
X1288Y1827D01*
X1212Y1826D02*
X1288Y1826D01*
X1212Y1825D02*
X1288Y1825D01*
X1212Y1824D02*
X1287Y1824D01*
X1213Y1823D02*
X1287Y1823D01*
X1213Y1822D02*
X1287Y1822D01*
X1213Y1821D02*
X1286Y1821D01*
X1214Y1820D02*
X1286Y1820D01*
X1214Y1819D02*
X1285Y1819D01*
X1215Y1818D02*
X1285Y1818D01*
X1215Y1817D02*
X1284Y1817D01*
X1216Y1816D02*
X1284Y1816D01*
X1217Y1815D02*
X1283Y1815D01*
X1217Y1814D02*
X1282Y1814D01*
X1218Y1813D02*
X1282Y1813D01*
X1219Y1812D02*
X1281Y1812D01*
X1220Y1811D02*
X1280Y1811D01*
X1220Y1810D02*
X1279Y1810D01*
X1221Y1809D02*
X1278Y1809D01*
X1222Y1808D02*
X1277Y1808D01*
X1223Y1807D02*
X1276Y1807D01*
X1224Y1806D02*
X1275Y1806D01*
X1226Y1805D02*
X1274Y1805D01*
X1227Y1804D02*
X1273Y1804D01*
X1229Y1803D02*
X1271Y1803D01*
X1230Y1802D02*
X1269Y1802D01*
X1232Y1801D02*
X1268Y1801D01*
X1234Y1800D02*
X1266Y1800D01*
X1236Y1799D02*
X1263Y1799D01*
X1240Y1798D02*
X1260Y1798D01*
X1244Y1797D02*
X1255Y1797D01*
X1245Y1776D02*
X1255Y1776D01*
X1240Y1775D02*
X1260Y1775D01*
X1237Y1774D02*
X1263Y1774D01*
X1234Y1773D02*
X1266Y1773D01*
X1232Y1772D02*
X1268Y1772D01*
X1230Y1771D02*
X1269Y1771D01*
X1229Y1770D02*
X1271Y1770D01*
X1227Y1769D02*
X1272Y1769D01*
X1226Y1768D02*
X1274Y1768D01*
X1225Y1767D02*
X1275Y1767D01*
X1223Y1766D02*
X1276Y1766D01*
X1222Y1765D02*
X1277Y1765D01*
X1221Y1764D02*
X1278Y1764D01*
X1220Y1763D02*
X1279Y1763D01*
X1220Y1762D02*
X1280Y1762D01*
X1219Y1761D02*
X1281Y1761D01*
X1218Y1760D02*
X1282Y1760D01*
X1217Y1759D02*
X1282Y1759D01*
X1217Y1758D02*
X1283Y1758D01*
X1216Y1757D02*
X1284Y1757D01*
X1216Y1756D02*
X1284Y1756D01*
X1215Y1755D02*
X1285Y1755D01*
X1214Y1754D02*
X1285Y1754D01*
X1214Y1753D02*
X1286Y1753D01*
X1213Y1752D02*
X1286Y1752D01*
X1213Y1751D02*
X1287Y1751D01*
X1213Y1750D02*
X1287Y1750D01*
X1212Y1749D02*
X1287Y1749D01*
X1212Y1748D02*
X1288Y1748D01*
X1212Y1747D02*
X1288Y1747D01*
X1212Y1746D02*
X1288Y1746D01*
X1211Y1745D02*
X1288Y1745D01*
X1211Y1744D02*
X1289Y1744D01*
X1211Y1743D02*
X1289Y1743D01*
X1211Y1742D02*
X1289Y1742D01*
X1211Y1741D02*
X1289Y1741D01*
X1211Y1740D02*
X1289Y1740D01*
X1210Y1739D02*
X1289Y1739D01*
X1210Y1738D02*
X1289Y1738D01*
X1210Y1737D02*
X1289Y1737D01*
X1210Y1736D02*
X1289Y1736D01*
X1210Y1735D02*
X1289Y1735D01*
X1210Y1734D02*
X1289Y1734D01*
X1211Y1733D02*
X1289Y1733D01*
X1211Y1732D02*
X1289Y1732D01*
X1211Y1731D02*
X1289Y1731D01*
X1211Y1730D02*
X1289Y1730D01*
X1211Y1729D02*
X1289Y1729D01*
X1211Y1728D02*
X1288Y1728D01*
X1212Y1727D02*
X1288Y1727D01*
X1212Y1726D02*
X1288Y1726D01*
X1212Y1725D02*
X1288Y1725D01*
X1212Y1724D02*
X1287Y1724D01*
X1213Y1723D02*
X1287Y1723D01*
X1213Y1722D02*
X1287Y1722D01*
X1213Y1721D02*
X1286Y1721D01*
X1214Y1720D02*
X1286Y1720D01*
X1214Y1719D02*
X1285Y1719D01*
X1215Y1718D02*
X1285Y1718D01*
X1215Y1717D02*
X1284Y1717D01*
X1216Y1716D02*
X1284Y1716D01*
X1217Y1715D02*
X1283Y1715D01*
X1217Y1714D02*
X1282Y1714D01*
X1218Y1713D02*
X1282Y1713D01*
X1219Y1712D02*
X1281Y1712D01*
X1220Y1711D02*
X1280Y1711D01*
X1220Y1710D02*
X1279Y1710D01*
X1221Y1709D02*
X1278Y1709D01*
X1222Y1708D02*
X1277Y1708D01*
X1223Y1707D02*
X1276Y1707D01*
X1225Y1706D02*
X1275Y1706D01*
X1226Y1705D02*
X1274Y1705D01*
X1227Y1704D02*
X1273Y1704D01*
X1229Y1703D02*
X1271Y1703D01*
X1230Y1702D02*
X1269Y1702D01*
X1232Y1701D02*
X1268Y1701D01*
X1234Y1700D02*
X1266Y1700D01*
X1237Y1699D02*
X1263Y1699D01*
X1240Y1698D02*
X1260Y1698D01*
X1245Y1697D02*
X1255Y1697D01*
X1245Y1676D02*
X1255Y1676D01*
X1240Y1675D02*
X1260Y1675D01*
X1237Y1674D02*
X1263Y1674D01*
X1234Y1673D02*
X1266Y1673D01*
X1232Y1672D02*
X1268Y1672D01*
X1230Y1671D02*
X1269Y1671D01*
X1229Y1670D02*
X1271Y1670D01*
X1227Y1669D02*
X1272Y1669D01*
X1226Y1668D02*
X1274Y1668D01*
X1225Y1667D02*
X1275Y1667D01*
X1223Y1666D02*
X1276Y1666D01*
X1222Y1665D02*
X1277Y1665D01*
X1221Y1664D02*
X1278Y1664D01*
X1220Y1663D02*
X1279Y1663D01*
X1220Y1662D02*
X1280Y1662D01*
X1219Y1661D02*
X1281Y1661D01*
X1218Y1660D02*
X1282Y1660D01*
X1217Y1659D02*
X1282Y1659D01*
X1217Y1658D02*
X1283Y1658D01*
X1216Y1657D02*
X1284Y1657D01*
X1215Y1656D02*
X1284Y1656D01*
X1215Y1655D02*
X1285Y1655D01*
X1214Y1654D02*
X1285Y1654D01*
X1214Y1653D02*
X1286Y1653D01*
X1213Y1652D02*
X1286Y1652D01*
X1213Y1651D02*
X1287Y1651D01*
X1213Y1650D02*
X1287Y1650D01*
X1212Y1649D02*
X1287Y1649D01*
X1212Y1648D02*
X1288Y1648D01*
X1212Y1647D02*
X1288Y1647D01*
X1212Y1646D02*
X1288Y1646D01*
X1211Y1645D02*
X1288Y1645D01*
X1211Y1644D02*
X1289Y1644D01*
X1211Y1643D02*
X1289Y1643D01*
X1211Y1642D02*
X1289Y1642D01*
X1211Y1641D02*
X1289Y1641D01*
X1211Y1640D02*
X1289Y1640D01*
X1210Y1639D02*
X1289Y1639D01*
X1210Y1638D02*
X1289Y1638D01*
X1210Y1637D02*
X1289Y1637D01*
X1210Y1636D02*
X1289Y1636D01*
X1210Y1635D02*
X1289Y1635D01*
X1210Y1634D02*
X1289Y1634D01*
X1211Y1633D02*
X1289Y1633D01*
X1211Y1632D02*
X1289Y1632D01*
X1211Y1631D02*
X1289Y1631D01*
X1211Y1630D02*
X1289Y1630D01*
X1211Y1629D02*
X1289Y1629D01*
X1211Y1628D02*
X1288Y1628D01*
X1212Y1627D02*
X1288Y1627D01*
X1212Y1626D02*
X1288Y1626D01*
X1212Y1625D02*
X1288Y1625D01*
X1212Y1624D02*
X1287Y1624D01*
X1213Y1623D02*
X1287Y1623D01*
X1213Y1622D02*
X1287Y1622D01*
X1213Y1621D02*
X1286Y1621D01*
X1214Y1620D02*
X1286Y1620D01*
X1214Y1619D02*
X1285Y1619D01*
X1215Y1618D02*
X1285Y1618D01*
X1215Y1617D02*
X1284Y1617D01*
X1216Y1616D02*
X1284Y1616D01*
X1217Y1615D02*
X1283Y1615D01*
X1217Y1614D02*
X1282Y1614D01*
X1218Y1613D02*
X1282Y1613D01*
X1219Y1612D02*
X1281Y1612D01*
X1220Y1611D02*
X1280Y1611D01*
X1220Y1610D02*
X1279Y1610D01*
X1221Y1609D02*
X1278Y1609D01*
X1222Y1608D02*
X1277Y1608D01*
X1223Y1607D02*
X1276Y1607D01*
X1225Y1606D02*
X1275Y1606D01*
X1226Y1605D02*
X1274Y1605D01*
X1227Y1604D02*
X1272Y1604D01*
X1229Y1603D02*
X1271Y1603D01*
X1230Y1602D02*
X1269Y1602D01*
X1232Y1601D02*
X1268Y1601D01*
X1234Y1600D02*
X1266Y1600D01*
X1237Y1599D02*
X1263Y1599D01*
X1240Y1598D02*
X1260Y1598D01*
X1245Y1597D02*
X1255Y1597D01*
X1245Y1576D02*
X1255Y1576D01*
X1240Y1575D02*
X1260Y1575D01*
X1237Y1574D02*
X1263Y1574D01*
X1234Y1573D02*
X1266Y1573D01*
X1232Y1572D02*
X1268Y1572D01*
X1230Y1571D02*
X1269Y1571D01*
X1229Y1570D02*
X1271Y1570D01*
X1227Y1569D02*
X1272Y1569D01*
X1226Y1568D02*
X1274Y1568D01*
X1225Y1567D02*
X1275Y1567D01*
X1223Y1566D02*
X1276Y1566D01*
X1222Y1565D02*
X1277Y1565D01*
X1221Y1564D02*
X1278Y1564D01*
X1220Y1563D02*
X1279Y1563D01*
X1220Y1562D02*
X1280Y1562D01*
X1219Y1561D02*
X1281Y1561D01*
X1218Y1560D02*
X1282Y1560D01*
X1217Y1559D02*
X1282Y1559D01*
X1217Y1558D02*
X1283Y1558D01*
X1216Y1557D02*
X1284Y1557D01*
X1215Y1556D02*
X1284Y1556D01*
X1215Y1555D02*
X1285Y1555D01*
X1214Y1554D02*
X1285Y1554D01*
X1214Y1553D02*
X1286Y1553D01*
X1213Y1552D02*
X1286Y1552D01*
X1213Y1551D02*
X1287Y1551D01*
X1213Y1550D02*
X1287Y1550D01*
X1212Y1549D02*
X1287Y1549D01*
X1212Y1548D02*
X1288Y1548D01*
X1212Y1547D02*
X1288Y1547D01*
X1212Y1546D02*
X1288Y1546D01*
X1211Y1545D02*
X1288Y1545D01*
X1211Y1544D02*
X1289Y1544D01*
X1211Y1543D02*
X1289Y1543D01*
X1211Y1542D02*
X1289Y1542D01*
X1211Y1541D02*
X1289Y1541D01*
X1211Y1540D02*
X1289Y1540D01*
X1210Y1539D02*
X1289Y1539D01*
X1210Y1538D02*
X1289Y1538D01*
X1210Y1537D02*
X1289Y1537D01*
X1210Y1536D02*
X1289Y1536D01*
X1210Y1535D02*
X1289Y1535D01*
X1210Y1534D02*
X1289Y1534D01*
X1211Y1533D02*
X1289Y1533D01*
X1211Y1532D02*
X1289Y1532D01*
X1211Y1531D02*
X1289Y1531D01*
X1211Y1530D02*
X1289Y1530D01*
X1211Y1529D02*
X1289Y1529D01*
X1211Y1528D02*
X1288Y1528D01*
X1212Y1527D02*
X1288Y1527D01*
X1212Y1526D02*
X1288Y1526D01*
X1212Y1525D02*
X1288Y1525D01*
X1212Y1524D02*
X1287Y1524D01*
X1213Y1523D02*
X1287Y1523D01*
X1213Y1522D02*
X1287Y1522D01*
X1213Y1521D02*
X1286Y1521D01*
X1214Y1520D02*
X1286Y1520D01*
X1214Y1519D02*
X1285Y1519D01*
X1215Y1518D02*
X1285Y1518D01*
X1216Y1517D02*
X1284Y1517D01*
X1216Y1516D02*
X1284Y1516D01*
X1217Y1515D02*
X1283Y1515D01*
X1217Y1514D02*
X1282Y1514D01*
X1218Y1513D02*
X1282Y1513D01*
X1219Y1512D02*
X1281Y1512D01*
X1220Y1511D02*
X1280Y1511D01*
X1220Y1510D02*
X1279Y1510D01*
X1221Y1509D02*
X1278Y1509D01*
X1222Y1508D02*
X1277Y1508D01*
X1223Y1507D02*
X1276Y1507D01*
X1225Y1506D02*
X1275Y1506D01*
X1226Y1505D02*
X1274Y1505D01*
X1227Y1504D02*
X1272Y1504D01*
X1229Y1503D02*
X1271Y1503D01*
X1230Y1502D02*
X1269Y1502D01*
X1232Y1501D02*
X1268Y1501D01*
X1234Y1500D02*
X1266Y1500D01*
X1237Y1499D02*
X1263Y1499D01*
X1240Y1498D02*
X1260Y1498D01*
X1245Y1497D02*
X1255Y1497D01*
X1244Y1476D02*
X1255Y1476D01*
X1240Y1475D02*
X1260Y1475D01*
X1236Y1474D02*
X1263Y1474D01*
X1234Y1473D02*
X1266Y1473D01*
X1232Y1472D02*
X1268Y1472D01*
X1230Y1471D02*
X1269Y1471D01*
X1229Y1470D02*
X1271Y1470D01*
X1227Y1469D02*
X1273Y1469D01*
X1226Y1468D02*
X1274Y1468D01*
X1224Y1467D02*
X1275Y1467D01*
X1223Y1466D02*
X1276Y1466D01*
X1222Y1465D02*
X1277Y1465D01*
X1221Y1464D02*
X1278Y1464D01*
X1220Y1463D02*
X1279Y1463D01*
X1220Y1462D02*
X1280Y1462D01*
X1219Y1461D02*
X1281Y1461D01*
X1218Y1460D02*
X1282Y1460D01*
X1217Y1459D02*
X1282Y1459D01*
X1217Y1458D02*
X1283Y1458D01*
X1216Y1457D02*
X1284Y1457D01*
X1215Y1456D02*
X1284Y1456D01*
X1215Y1455D02*
X1285Y1455D01*
X1214Y1454D02*
X1285Y1454D01*
X1214Y1453D02*
X1286Y1453D01*
X1213Y1452D02*
X1286Y1452D01*
X1213Y1451D02*
X1287Y1451D01*
X1213Y1450D02*
X1287Y1450D01*
X1212Y1449D02*
X1287Y1449D01*
X1212Y1448D02*
X1288Y1448D01*
X1212Y1447D02*
X1288Y1447D01*
X1212Y1446D02*
X1288Y1446D01*
X1211Y1445D02*
X1288Y1445D01*
X1211Y1444D02*
X1289Y1444D01*
X1211Y1443D02*
X1289Y1443D01*
X1211Y1442D02*
X1289Y1442D01*
X1211Y1441D02*
X1289Y1441D01*
X1211Y1440D02*
X1289Y1440D01*
X1210Y1439D02*
X1289Y1439D01*
X1210Y1438D02*
X1289Y1438D01*
X1210Y1437D02*
X1289Y1437D01*
X1210Y1436D02*
X1289Y1436D01*
X1210Y1435D02*
X1289Y1435D01*
X1210Y1434D02*
X1289Y1434D01*
X1211Y1433D02*
X1289Y1433D01*
X1211Y1432D02*
X1289Y1432D01*
X1211Y1431D02*
X1289Y1431D01*
X1211Y1430D02*
X1289Y1430D01*
X1211Y1429D02*
X1289Y1429D01*
X1211Y1428D02*
X1288Y1428D01*
X1212Y1427D02*
X1288Y1427D01*
X1212Y1426D02*
X1288Y1426D01*
X1212Y1425D02*
X1288Y1425D01*
X1212Y1424D02*
X1287Y1424D01*
X1213Y1423D02*
X1287Y1423D01*
X1213Y1422D02*
X1287Y1422D01*
X1214Y1421D02*
X1286Y1421D01*
X1214Y1420D02*
X1286Y1420D01*
X1214Y1419D02*
X1285Y1419D01*
X1215Y1418D02*
X1285Y1418D01*
X1216Y1417D02*
X1284Y1417D01*
X1216Y1416D02*
X1284Y1416D01*
X1217Y1415D02*
X1283Y1415D01*
X1217Y1414D02*
X1282Y1414D01*
X1218Y1413D02*
X1282Y1413D01*
X1219Y1412D02*
X1281Y1412D01*
X1220Y1411D02*
X1280Y1411D01*
X1221Y1410D02*
X1279Y1410D01*
X1221Y1409D02*
X1278Y1409D01*
X1222Y1408D02*
X1277Y1408D01*
X1223Y1407D02*
X1276Y1407D01*
X1225Y1406D02*
X1275Y1406D01*
X1226Y1405D02*
X1274Y1405D01*
X1227Y1404D02*
X1272Y1404D01*
X1229Y1403D02*
X1271Y1403D01*
X1230Y1402D02*
X1269Y1402D01*
X1232Y1401D02*
X1268Y1401D01*
X1234Y1400D02*
X1266Y1400D01*
X1237Y1399D02*
X1263Y1399D01*
X1240Y1398D02*
X1260Y1398D01*
X1245Y1397D02*
X1255Y1397D01*
X1244Y1376D02*
X1255Y1376D01*
X1240Y1375D02*
X1260Y1375D01*
X1236Y1374D02*
X1263Y1374D01*
X1234Y1373D02*
X1266Y1373D01*
X1232Y1372D02*
X1268Y1372D01*
X1230Y1371D02*
X1270Y1371D01*
X1229Y1370D02*
X1271Y1370D01*
X1227Y1369D02*
X1273Y1369D01*
X1226Y1368D02*
X1274Y1368D01*
X1224Y1367D02*
X1275Y1367D01*
X1223Y1366D02*
X1276Y1366D01*
X1222Y1365D02*
X1277Y1365D01*
X1221Y1364D02*
X1278Y1364D01*
X1220Y1363D02*
X1279Y1363D01*
X1220Y1362D02*
X1280Y1362D01*
X1219Y1361D02*
X1281Y1361D01*
X1218Y1360D02*
X1282Y1360D01*
X1217Y1359D02*
X1282Y1359D01*
X1217Y1358D02*
X1283Y1358D01*
X1216Y1357D02*
X1284Y1357D01*
X1215Y1356D02*
X1284Y1356D01*
X1215Y1355D02*
X1285Y1355D01*
X1214Y1354D02*
X1285Y1354D01*
X1214Y1353D02*
X1286Y1353D01*
X1213Y1352D02*
X1286Y1352D01*
X1213Y1351D02*
X1287Y1351D01*
X1213Y1350D02*
X1287Y1350D01*
X1212Y1349D02*
X1287Y1349D01*
X1212Y1348D02*
X1288Y1348D01*
X1212Y1347D02*
X1288Y1347D01*
X1212Y1346D02*
X1288Y1346D01*
X1211Y1345D02*
X1288Y1345D01*
X1211Y1344D02*
X1289Y1344D01*
X1211Y1343D02*
X1289Y1343D01*
X1211Y1342D02*
X1289Y1342D01*
X1211Y1341D02*
X1289Y1341D01*
X1211Y1340D02*
X1289Y1340D01*
X1210Y1339D02*
X1289Y1339D01*
X1210Y1338D02*
X1289Y1338D01*
X1210Y1337D02*
X1289Y1337D01*
X1210Y1336D02*
X1289Y1336D01*
X1210Y1335D02*
X1289Y1335D01*
X1210Y1334D02*
X1289Y1334D01*
X1211Y1333D02*
X1289Y1333D01*
X1211Y1332D02*
X1289Y1332D01*
X1211Y1331D02*
X1289Y1331D01*
X1211Y1330D02*
X1289Y1330D01*
X1211Y1329D02*
X1289Y1329D01*
X1211Y1328D02*
X1288Y1328D01*
X1212Y1327D02*
X1288Y1327D01*
X1212Y1326D02*
X1288Y1326D01*
X1212Y1325D02*
X1288Y1325D01*
X1212Y1324D02*
X1287Y1324D01*
X1213Y1323D02*
X1287Y1323D01*
X1213Y1322D02*
X1287Y1322D01*
X1214Y1321D02*
X1286Y1321D01*
X1214Y1320D02*
X1286Y1320D01*
X1214Y1319D02*
X1285Y1319D01*
X1215Y1318D02*
X1285Y1318D01*
X1216Y1317D02*
X1284Y1317D01*
X1216Y1316D02*
X1284Y1316D01*
X1217Y1315D02*
X1283Y1315D01*
X1217Y1314D02*
X1282Y1314D01*
X1218Y1313D02*
X1282Y1313D01*
X1219Y1312D02*
X1281Y1312D01*
X1220Y1311D02*
X1280Y1311D01*
X1221Y1310D02*
X1279Y1310D01*
X1221Y1309D02*
X1278Y1309D01*
X1222Y1308D02*
X1277Y1308D01*
X1224Y1307D02*
X1276Y1307D01*
X1225Y1306D02*
X1275Y1306D01*
X1226Y1305D02*
X1274Y1305D01*
X1227Y1304D02*
X1272Y1304D01*
X1229Y1303D02*
X1271Y1303D01*
X1230Y1302D02*
X1269Y1302D01*
X1232Y1301D02*
X1267Y1301D01*
X1234Y1300D02*
X1265Y1300D01*
X1237Y1299D02*
X1263Y1299D01*
X1240Y1298D02*
X1260Y1298D01*
X1245Y1297D02*
X1254Y1297D01*
X1244Y1276D02*
X1256Y1276D01*
X1239Y1275D02*
X1260Y1275D01*
X1236Y1274D02*
X1263Y1274D01*
X1234Y1273D02*
X1266Y1273D01*
X1232Y1272D02*
X1268Y1272D01*
X1230Y1271D02*
X1270Y1271D01*
X1229Y1270D02*
X1271Y1270D01*
X1227Y1269D02*
X1273Y1269D01*
X1226Y1268D02*
X1274Y1268D01*
X1224Y1267D02*
X1275Y1267D01*
X1223Y1266D02*
X1276Y1266D01*
X1222Y1265D02*
X1277Y1265D01*
X1221Y1264D02*
X1278Y1264D01*
X1220Y1263D02*
X1279Y1263D01*
X1220Y1262D02*
X1280Y1262D01*
X1219Y1261D02*
X1281Y1261D01*
X1218Y1260D02*
X1282Y1260D01*
X1217Y1259D02*
X1282Y1259D01*
X1217Y1258D02*
X1283Y1258D01*
X1216Y1257D02*
X1284Y1257D01*
X1215Y1256D02*
X1284Y1256D01*
X1215Y1255D02*
X1285Y1255D01*
X1214Y1254D02*
X1285Y1254D01*
X1214Y1253D02*
X1286Y1253D01*
X1213Y1252D02*
X1286Y1252D01*
X1213Y1251D02*
X1287Y1251D01*
X1213Y1250D02*
X1287Y1250D01*
X1212Y1249D02*
X1287Y1249D01*
X1212Y1248D02*
X1288Y1248D01*
X1212Y1247D02*
X1288Y1247D01*
X1212Y1246D02*
X1288Y1246D01*
X1211Y1245D02*
X1288Y1245D01*
X1211Y1244D02*
X1289Y1244D01*
X1211Y1243D02*
X1289Y1243D01*
X1211Y1242D02*
X1289Y1242D01*
X1211Y1241D02*
X1289Y1241D01*
X1211Y1240D02*
X1289Y1240D01*
X1210Y1239D02*
X1289Y1239D01*
X1210Y1238D02*
X1289Y1238D01*
X1210Y1237D02*
X1289Y1237D01*
X1210Y1236D02*
X1289Y1236D01*
X1210Y1235D02*
X1289Y1235D01*
X1210Y1234D02*
X1289Y1234D01*
X1211Y1233D02*
X1289Y1233D01*
X1211Y1232D02*
X1289Y1232D01*
X1211Y1231D02*
X1289Y1231D01*
X1211Y1230D02*
X1289Y1230D01*
X1211Y1229D02*
X1289Y1229D01*
X1211Y1228D02*
X1288Y1228D01*
X1212Y1227D02*
X1288Y1227D01*
X1212Y1226D02*
X1288Y1226D01*
X1212Y1225D02*
X1288Y1225D01*
X1212Y1224D02*
X1287Y1224D01*
X1213Y1223D02*
X1287Y1223D01*
X1213Y1222D02*
X1287Y1222D01*
X1214Y1221D02*
X1286Y1221D01*
X1214Y1220D02*
X1286Y1220D01*
X1214Y1219D02*
X1285Y1219D01*
X1215Y1218D02*
X1285Y1218D01*
X1216Y1217D02*
X1284Y1217D01*
X1216Y1216D02*
X1284Y1216D01*
X1217Y1215D02*
X1283Y1215D01*
X1217Y1214D02*
X1282Y1214D01*
X1218Y1213D02*
X1282Y1213D01*
X1219Y1212D02*
X1281Y1212D01*
X1220Y1211D02*
X1280Y1211D01*
X1221Y1210D02*
X1279Y1210D01*
X1221Y1209D02*
X1278Y1209D01*
X1222Y1208D02*
X1277Y1208D01*
X1224Y1207D02*
X1276Y1207D01*
X1225Y1206D02*
X1275Y1206D01*
X1226Y1205D02*
X1274Y1205D01*
X1227Y1204D02*
X1272Y1204D01*
X1229Y1203D02*
X1271Y1203D01*
X1230Y1202D02*
X1269Y1202D01*
X1232Y1201D02*
X1267Y1201D01*
X1234Y1200D02*
X1265Y1200D01*
X1237Y1199D02*
X1263Y1199D01*
X1240Y1198D02*
X1259Y1198D01*
X1245Y1197D02*
X1254Y1197D01*
X1244Y1176D02*
X1255Y1176D01*
X1240Y1175D02*
X1260Y1175D01*
X1236Y1174D02*
X1263Y1174D01*
X1234Y1173D02*
X1266Y1173D01*
X1232Y1172D02*
X1268Y1172D01*
X1230Y1171D02*
X1269Y1171D01*
X1229Y1170D02*
X1271Y1170D01*
X1227Y1169D02*
X1273Y1169D01*
X1226Y1168D02*
X1274Y1168D01*
X1224Y1167D02*
X1275Y1167D01*
X1223Y1166D02*
X1276Y1166D01*
X1222Y1165D02*
X1277Y1165D01*
X1221Y1164D02*
X1278Y1164D01*
X1220Y1163D02*
X1279Y1163D01*
X1220Y1162D02*
X1280Y1162D01*
X1219Y1161D02*
X1281Y1161D01*
X1218Y1160D02*
X1282Y1160D01*
X1217Y1159D02*
X1282Y1159D01*
X1217Y1158D02*
X1283Y1158D01*
X1216Y1157D02*
X1284Y1157D01*
X1215Y1156D02*
X1284Y1156D01*
X1215Y1155D02*
X1285Y1155D01*
X1214Y1154D02*
X1285Y1154D01*
X1214Y1153D02*
X1286Y1153D01*
X1213Y1152D02*
X1286Y1152D01*
X1213Y1151D02*
X1287Y1151D01*
X1213Y1150D02*
X1287Y1150D01*
X1212Y1149D02*
X1287Y1149D01*
X1212Y1148D02*
X1288Y1148D01*
X1212Y1147D02*
X1288Y1147D01*
X1212Y1146D02*
X1288Y1146D01*
X1211Y1145D02*
X1288Y1145D01*
X1211Y1144D02*
X1289Y1144D01*
X1211Y1143D02*
X1289Y1143D01*
X1211Y1142D02*
X1289Y1142D01*
X1211Y1141D02*
X1289Y1141D01*
X1211Y1140D02*
X1289Y1140D01*
X1210Y1139D02*
X1289Y1139D01*
X1210Y1138D02*
X1289Y1138D01*
X1210Y1137D02*
X1289Y1137D01*
X1210Y1136D02*
X1289Y1136D01*
X1210Y1135D02*
X1289Y1135D01*
X1210Y1134D02*
X1289Y1134D01*
X1211Y1133D02*
X1289Y1133D01*
X1211Y1132D02*
X1289Y1132D01*
X1211Y1131D02*
X1289Y1131D01*
X1211Y1130D02*
X1289Y1130D01*
X1211Y1129D02*
X1289Y1129D01*
X1211Y1128D02*
X1288Y1128D01*
X1212Y1127D02*
X1288Y1127D01*
X1212Y1126D02*
X1288Y1126D01*
X1212Y1125D02*
X1288Y1125D01*
X1212Y1124D02*
X1287Y1124D01*
X1213Y1123D02*
X1287Y1123D01*
X1213Y1122D02*
X1287Y1122D01*
X1213Y1121D02*
X1286Y1121D01*
X1214Y1120D02*
X1286Y1120D01*
X1214Y1119D02*
X1285Y1119D01*
X1215Y1118D02*
X1285Y1118D01*
X1216Y1117D02*
X1284Y1117D01*
X1216Y1116D02*
X1284Y1116D01*
X1217Y1115D02*
X1283Y1115D01*
X1217Y1114D02*
X1282Y1114D01*
X1218Y1113D02*
X1282Y1113D01*
X1219Y1112D02*
X1281Y1112D01*
X1220Y1111D02*
X1280Y1111D01*
X1221Y1110D02*
X1279Y1110D01*
X1221Y1109D02*
X1278Y1109D01*
X1222Y1108D02*
X1277Y1108D01*
X1223Y1107D02*
X1276Y1107D01*
X1225Y1106D02*
X1275Y1106D01*
X1226Y1105D02*
X1274Y1105D01*
X1227Y1104D02*
X1272Y1104D01*
X1229Y1103D02*
X1271Y1103D01*
X1230Y1102D02*
X1269Y1102D01*
X1232Y1101D02*
X1268Y1101D01*
X1234Y1100D02*
X1266Y1100D01*
X1237Y1099D02*
X1263Y1099D01*
X1240Y1098D02*
X1260Y1098D01*
X1245Y1097D02*
X1255Y1097D01*
X2117Y201D02*
X2132Y201D01*
X2217Y201D02*
X2232Y201D01*
X2317Y201D02*
X2332Y201D01*
X2113Y200D02*
X2136Y200D01*
X2213Y200D02*
X2236Y200D01*
X2313Y200D02*
X2336Y200D01*
X2110Y199D02*
X2139Y199D01*
X2210Y199D02*
X2239Y199D01*
X2310Y199D02*
X2339Y199D01*
X2108Y198D02*
X2141Y198D01*
X2208Y198D02*
X2241Y198D01*
X2308Y198D02*
X2341Y198D01*
X2106Y197D02*
X2143Y197D01*
X2206Y197D02*
X2243Y197D01*
X2306Y197D02*
X2343Y197D01*
X2104Y196D02*
X2145Y196D01*
X2204Y196D02*
X2245Y196D01*
X2304Y196D02*
X2345Y196D01*
X2103Y195D02*
X2146Y195D01*
X2203Y195D02*
X2246Y195D01*
X2303Y195D02*
X2346Y195D01*
X2101Y194D02*
X2148Y194D01*
X2201Y194D02*
X2248Y194D01*
X2301Y194D02*
X2348Y194D01*
X2100Y193D02*
X2149Y193D01*
X2200Y193D02*
X2249Y193D01*
X2300Y193D02*
X2349Y193D01*
X2099Y192D02*
X2150Y192D01*
X2199Y192D02*
X2250Y192D01*
X2299Y192D02*
X2350Y192D01*
X2098Y191D02*
X2151Y191D01*
X2198Y191D02*
X2251Y191D01*
X2298Y191D02*
X2351Y191D01*
X2097Y190D02*
X2153Y190D01*
X2197Y190D02*
X2253Y190D01*
X2297Y190D02*
X2352Y190D01*
X2096Y189D02*
X2153Y189D01*
X2196Y189D02*
X2253Y189D01*
X2296Y189D02*
X2353Y189D01*
X2095Y188D02*
X2154Y188D01*
X2195Y188D02*
X2254Y188D01*
X2295Y188D02*
X2354Y188D01*
X2094Y187D02*
X2155Y187D01*
X2194Y187D02*
X2255Y187D01*
X2294Y187D02*
X2355Y187D01*
X2093Y186D02*
X2156Y186D01*
X2193Y186D02*
X2256Y186D01*
X2293Y186D02*
X2356Y186D01*
X2093Y185D02*
X2157Y185D01*
X2193Y185D02*
X2257Y185D01*
X2293Y185D02*
X2357Y185D01*
X2092Y184D02*
X2157Y184D01*
X2192Y184D02*
X2257Y184D01*
X2292Y184D02*
X2357Y184D01*
X2091Y183D02*
X2158Y183D01*
X2191Y183D02*
X2258Y183D01*
X2291Y183D02*
X2358Y183D01*
X2091Y182D02*
X2159Y182D01*
X2191Y182D02*
X2259Y182D01*
X2291Y182D02*
X2359Y182D01*
X2090Y181D02*
X2159Y181D01*
X2190Y181D02*
X2259Y181D01*
X2290Y181D02*
X2359Y181D01*
X2090Y180D02*
X2160Y180D01*
X2190Y180D02*
X2260Y180D01*
X2289Y180D02*
X2360Y180D01*
X2089Y179D02*
X2160Y179D01*
X2189Y179D02*
X2260Y179D01*
X2289Y179D02*
X2360Y179D01*
X2089Y178D02*
X2161Y178D01*
X2189Y178D02*
X2261Y178D01*
X2288Y178D02*
X2361Y178D01*
X2088Y177D02*
X2161Y177D01*
X2188Y177D02*
X2261Y177D01*
X2288Y177D02*
X2361Y177D01*
X168Y176D02*
X183Y176D01*
X268Y176D02*
X283Y176D01*
X368Y176D02*
X383Y176D01*
X2088Y176D02*
X2161Y176D01*
X2188Y176D02*
X2261Y176D01*
X2288Y176D02*
X2361Y176D01*
X164Y175D02*
X187Y175D01*
X264Y175D02*
X287Y175D01*
X364Y175D02*
X387Y175D01*
X2087Y175D02*
X2162Y175D01*
X2187Y175D02*
X2262Y175D01*
X2287Y175D02*
X2362Y175D01*
X161Y174D02*
X189Y174D01*
X261Y174D02*
X289Y174D01*
X361Y174D02*
X389Y174D01*
X2087Y174D02*
X2162Y174D01*
X2187Y174D02*
X2262Y174D01*
X2287Y174D02*
X2362Y174D01*
X159Y173D02*
X192Y173D01*
X259Y173D02*
X292Y173D01*
X358Y173D02*
X392Y173D01*
X2087Y173D02*
X2162Y173D01*
X2187Y173D02*
X2262Y173D01*
X2287Y173D02*
X2362Y173D01*
X157Y172D02*
X194Y172D01*
X257Y172D02*
X294Y172D01*
X357Y172D02*
X394Y172D01*
X2087Y172D02*
X2163Y172D01*
X2186Y172D02*
X2263Y172D01*
X2286Y172D02*
X2363Y172D01*
X155Y171D02*
X195Y171D01*
X255Y171D02*
X295Y171D01*
X355Y171D02*
X395Y171D01*
X2086Y171D02*
X2163Y171D01*
X2186Y171D02*
X2263Y171D01*
X2286Y171D02*
X2363Y171D01*
X153Y170D02*
X197Y170D01*
X253Y170D02*
X297Y170D01*
X353Y170D02*
X397Y170D01*
X2086Y170D02*
X2163Y170D01*
X2186Y170D02*
X2263Y170D01*
X2286Y170D02*
X2363Y170D01*
X152Y169D02*
X198Y169D01*
X252Y169D02*
X298Y169D01*
X352Y169D02*
X398Y169D01*
X2086Y169D02*
X2163Y169D01*
X2186Y169D02*
X2263Y169D01*
X2286Y169D02*
X2363Y169D01*
X151Y168D02*
X200Y168D01*
X251Y168D02*
X300Y168D01*
X351Y168D02*
X400Y168D01*
X2086Y168D02*
X2164Y168D01*
X2186Y168D02*
X2263Y168D01*
X2286Y168D02*
X2363Y168D01*
X149Y167D02*
X201Y167D01*
X249Y167D02*
X301Y167D01*
X349Y167D02*
X401Y167D01*
X2086Y167D02*
X2164Y167D01*
X2186Y167D02*
X2264Y167D01*
X2285Y167D02*
X2364Y167D01*
X148Y166D02*
X202Y166D01*
X248Y166D02*
X302Y166D01*
X348Y166D02*
X402Y166D01*
X2085Y166D02*
X2164Y166D01*
X2185Y166D02*
X2264Y166D01*
X2285Y166D02*
X2364Y166D01*
X147Y165D02*
X203Y165D01*
X247Y165D02*
X303Y165D01*
X347Y165D02*
X403Y165D01*
X2085Y165D02*
X2164Y165D01*
X2185Y165D02*
X2264Y165D01*
X2285Y165D02*
X2364Y165D01*
X146Y164D02*
X204Y164D01*
X246Y164D02*
X304Y164D01*
X346Y164D02*
X404Y164D01*
X2085Y164D02*
X2164Y164D01*
X2185Y164D02*
X2264Y164D01*
X2285Y164D02*
X2364Y164D01*
X145Y163D02*
X205Y163D01*
X245Y163D02*
X305Y163D01*
X345Y163D02*
X405Y163D01*
X2085Y163D02*
X2164Y163D01*
X2185Y163D02*
X2264Y163D01*
X2285Y163D02*
X2364Y163D01*
X145Y162D02*
X206Y162D01*
X245Y162D02*
X306Y162D01*
X345Y162D02*
X406Y162D01*
X2085Y162D02*
X2164Y162D01*
X2185Y162D02*
X2264Y162D01*
X2285Y162D02*
X2364Y162D01*
X144Y161D02*
X206Y161D01*
X244Y161D02*
X306Y161D01*
X344Y161D02*
X406Y161D01*
X2085Y161D02*
X2164Y161D01*
X2185Y161D02*
X2264Y161D01*
X2285Y161D02*
X2364Y161D01*
X143Y160D02*
X207Y160D01*
X243Y160D02*
X307Y160D01*
X343Y160D02*
X407Y160D01*
X2085Y160D02*
X2164Y160D01*
X2185Y160D02*
X2264Y160D01*
X2285Y160D02*
X2364Y160D01*
X142Y159D02*
X208Y159D01*
X242Y159D02*
X308Y159D01*
X342Y159D02*
X408Y159D01*
X2085Y159D02*
X2164Y159D01*
X2185Y159D02*
X2264Y159D01*
X2285Y159D02*
X2364Y159D01*
X142Y158D02*
X208Y158D01*
X242Y158D02*
X308Y158D01*
X342Y158D02*
X408Y158D01*
X2085Y158D02*
X2164Y158D01*
X2185Y158D02*
X2264Y158D01*
X2285Y158D02*
X2364Y158D01*
X141Y157D02*
X209Y157D01*
X241Y157D02*
X309Y157D01*
X341Y157D02*
X409Y157D01*
X2086Y157D02*
X2164Y157D01*
X2185Y157D02*
X2264Y157D01*
X2285Y157D02*
X2364Y157D01*
X141Y156D02*
X210Y156D01*
X241Y156D02*
X310Y156D01*
X340Y156D02*
X410Y156D01*
X2086Y156D02*
X2164Y156D01*
X2186Y156D02*
X2264Y156D01*
X2286Y156D02*
X2364Y156D01*
X140Y155D02*
X210Y155D01*
X240Y155D02*
X310Y155D01*
X340Y155D02*
X410Y155D01*
X2086Y155D02*
X2163Y155D01*
X2186Y155D02*
X2263Y155D01*
X2286Y155D02*
X2363Y155D01*
X140Y154D02*
X211Y154D01*
X240Y154D02*
X311Y154D01*
X339Y154D02*
X411Y154D01*
X2086Y154D02*
X2163Y154D01*
X2186Y154D02*
X2263Y154D01*
X2286Y154D02*
X2363Y154D01*
X139Y153D02*
X211Y153D01*
X239Y153D02*
X311Y153D01*
X339Y153D02*
X411Y153D01*
X2086Y153D02*
X2163Y153D01*
X2186Y153D02*
X2263Y153D01*
X2286Y153D02*
X2363Y153D01*
X139Y152D02*
X212Y152D01*
X239Y152D02*
X312Y152D01*
X339Y152D02*
X412Y152D01*
X2086Y152D02*
X2163Y152D01*
X2186Y152D02*
X2263Y152D01*
X2286Y152D02*
X2363Y152D01*
X138Y151D02*
X212Y151D01*
X238Y151D02*
X312Y151D01*
X338Y151D02*
X412Y151D01*
X2087Y151D02*
X2163Y151D01*
X2187Y151D02*
X2262Y151D01*
X2287Y151D02*
X2362Y151D01*
X138Y150D02*
X212Y150D01*
X238Y150D02*
X312Y150D01*
X338Y150D02*
X412Y150D01*
X2087Y150D02*
X2162Y150D01*
X2187Y150D02*
X2262Y150D01*
X2287Y150D02*
X2362Y150D01*
X138Y149D02*
X213Y149D01*
X238Y149D02*
X313Y149D01*
X338Y149D02*
X413Y149D01*
X2087Y149D02*
X2162Y149D01*
X2187Y149D02*
X2262Y149D01*
X2287Y149D02*
X2362Y149D01*
X137Y148D02*
X213Y148D01*
X237Y148D02*
X313Y148D01*
X337Y148D02*
X413Y148D01*
X2088Y148D02*
X2162Y148D01*
X2188Y148D02*
X2262Y148D01*
X2288Y148D02*
X2362Y148D01*
X137Y147D02*
X213Y147D01*
X237Y147D02*
X313Y147D01*
X337Y147D02*
X413Y147D01*
X2088Y147D02*
X2161Y147D01*
X2188Y147D02*
X2261Y147D01*
X2288Y147D02*
X2361Y147D01*
X137Y146D02*
X213Y146D01*
X237Y146D02*
X313Y146D01*
X337Y146D02*
X413Y146D01*
X2088Y146D02*
X2161Y146D01*
X2188Y146D02*
X2261Y146D01*
X2288Y146D02*
X2361Y146D01*
X137Y145D02*
X214Y145D01*
X237Y145D02*
X314Y145D01*
X336Y145D02*
X414Y145D01*
X2089Y145D02*
X2160Y145D01*
X2189Y145D02*
X2260Y145D01*
X2289Y145D02*
X2360Y145D01*
X136Y144D02*
X214Y144D01*
X236Y144D02*
X314Y144D01*
X336Y144D02*
X414Y144D01*
X2089Y144D02*
X2160Y144D01*
X2189Y144D02*
X2260Y144D01*
X2289Y144D02*
X2360Y144D01*
X136Y143D02*
X214Y143D01*
X236Y143D02*
X314Y143D01*
X336Y143D02*
X414Y143D01*
X2090Y143D02*
X2159Y143D01*
X2190Y143D02*
X2259Y143D01*
X2290Y143D02*
X2359Y143D01*
X136Y142D02*
X214Y142D01*
X236Y142D02*
X314Y142D01*
X336Y142D02*
X414Y142D01*
X2091Y142D02*
X2159Y142D01*
X2190Y142D02*
X2259Y142D01*
X2290Y142D02*
X2359Y142D01*
X136Y141D02*
X214Y141D01*
X236Y141D02*
X314Y141D01*
X336Y141D02*
X414Y141D01*
X2091Y141D02*
X2158Y141D01*
X2191Y141D02*
X2258Y141D01*
X2291Y141D02*
X2358Y141D01*
X136Y140D02*
X214Y140D01*
X236Y140D02*
X314Y140D01*
X336Y140D02*
X414Y140D01*
X2092Y140D02*
X2157Y140D01*
X2192Y140D02*
X2257Y140D01*
X2292Y140D02*
X2357Y140D01*
X136Y139D02*
X214Y139D01*
X236Y139D02*
X314Y139D01*
X336Y139D02*
X414Y139D01*
X2092Y139D02*
X2157Y139D01*
X2192Y139D02*
X2257Y139D01*
X2292Y139D02*
X2357Y139D01*
X136Y138D02*
X215Y138D01*
X236Y138D02*
X315Y138D01*
X336Y138D02*
X414Y138D01*
X2093Y138D02*
X2156Y138D01*
X2193Y138D02*
X2256Y138D01*
X2293Y138D02*
X2356Y138D01*
X136Y137D02*
X215Y137D01*
X236Y137D02*
X315Y137D01*
X336Y137D02*
X415Y137D01*
X2094Y137D02*
X2155Y137D01*
X2194Y137D02*
X2255Y137D01*
X2294Y137D02*
X2355Y137D01*
X136Y136D02*
X215Y136D01*
X236Y136D02*
X315Y136D01*
X336Y136D02*
X414Y136D01*
X2095Y136D02*
X2155Y136D01*
X2195Y136D02*
X2255Y136D01*
X2295Y136D02*
X2354Y136D01*
X136Y135D02*
X214Y135D01*
X236Y135D02*
X314Y135D01*
X336Y135D02*
X414Y135D01*
X2096Y135D02*
X2154Y135D01*
X2196Y135D02*
X2254Y135D01*
X2296Y135D02*
X2354Y135D01*
X136Y134D02*
X214Y134D01*
X236Y134D02*
X314Y134D01*
X336Y134D02*
X414Y134D01*
X2096Y134D02*
X2153Y134D01*
X2196Y134D02*
X2253Y134D01*
X2296Y134D02*
X2353Y134D01*
X136Y133D02*
X214Y133D01*
X236Y133D02*
X314Y133D01*
X336Y133D02*
X414Y133D01*
X2098Y133D02*
X2152Y133D01*
X2197Y133D02*
X2252Y133D01*
X2297Y133D02*
X2352Y133D01*
X136Y132D02*
X214Y132D01*
X236Y132D02*
X314Y132D01*
X336Y132D02*
X414Y132D01*
X2099Y132D02*
X2151Y132D01*
X2199Y132D02*
X2251Y132D01*
X2299Y132D02*
X2351Y132D01*
X136Y131D02*
X214Y131D01*
X236Y131D02*
X314Y131D01*
X336Y131D02*
X414Y131D01*
X2100Y131D02*
X2149Y131D01*
X2200Y131D02*
X2249Y131D01*
X2300Y131D02*
X2349Y131D01*
X136Y130D02*
X214Y130D01*
X236Y130D02*
X314Y130D01*
X336Y130D02*
X414Y130D01*
X2101Y130D02*
X2148Y130D01*
X2201Y130D02*
X2248Y130D01*
X2301Y130D02*
X2348Y130D01*
X136Y129D02*
X214Y129D01*
X236Y129D02*
X314Y129D01*
X336Y129D02*
X414Y129D01*
X2102Y129D02*
X2147Y129D01*
X2202Y129D02*
X2247Y129D01*
X2302Y129D02*
X2347Y129D01*
X137Y128D02*
X214Y128D01*
X237Y128D02*
X313Y128D01*
X337Y128D02*
X413Y128D01*
X2104Y128D02*
X2145Y128D01*
X2204Y128D02*
X2245Y128D01*
X2304Y128D02*
X2345Y128D01*
X137Y127D02*
X213Y127D01*
X237Y127D02*
X313Y127D01*
X337Y127D02*
X413Y127D01*
X2106Y127D02*
X2144Y127D01*
X2206Y127D02*
X2244Y127D01*
X2306Y127D02*
X2344Y127D01*
X137Y126D02*
X213Y126D01*
X237Y126D02*
X313Y126D01*
X337Y126D02*
X413Y126D01*
X2108Y126D02*
X2142Y126D01*
X2208Y126D02*
X2242Y126D01*
X2308Y126D02*
X2342Y126D01*
X137Y125D02*
X213Y125D01*
X237Y125D02*
X313Y125D01*
X337Y125D02*
X413Y125D01*
X2110Y125D02*
X2140Y125D01*
X2210Y125D02*
X2240Y125D01*
X2310Y125D02*
X2340Y125D01*
X138Y124D02*
X212Y124D01*
X238Y124D02*
X312Y124D01*
X338Y124D02*
X412Y124D01*
X2112Y124D02*
X2137Y124D01*
X2212Y124D02*
X2237Y124D01*
X2312Y124D02*
X2337Y124D01*
X138Y123D02*
X212Y123D01*
X238Y123D02*
X312Y123D01*
X338Y123D02*
X412Y123D01*
X2116Y123D02*
X2133Y123D01*
X2216Y123D02*
X2233Y123D01*
X2316Y123D02*
X2333Y123D01*
X139Y122D02*
X212Y122D01*
X238Y122D02*
X312Y122D01*
X338Y122D02*
X412Y122D01*
X2123Y122D02*
X2126Y122D01*
X2223Y122D02*
X2226Y122D01*
X2323Y122D02*
X2326Y122D01*
X139Y121D02*
X211Y121D01*
X239Y121D02*
X311Y121D01*
X339Y121D02*
X411Y121D01*
X139Y120D02*
X211Y120D01*
X239Y120D02*
X311Y120D01*
X339Y120D02*
X411Y120D01*
X140Y119D02*
X210Y119D01*
X240Y119D02*
X310Y119D01*
X340Y119D02*
X410Y119D01*
X140Y118D02*
X210Y118D01*
X240Y118D02*
X310Y118D01*
X340Y118D02*
X410Y118D01*
X141Y117D02*
X209Y117D01*
X241Y117D02*
X309Y117D01*
X341Y117D02*
X409Y117D01*
X142Y116D02*
X209Y116D01*
X242Y116D02*
X309Y116D01*
X342Y116D02*
X409Y116D01*
X142Y115D02*
X208Y115D01*
X242Y115D02*
X308Y115D01*
X342Y115D02*
X408Y115D01*
X143Y114D02*
X207Y114D01*
X243Y114D02*
X307Y114D01*
X343Y114D02*
X407Y114D01*
X144Y113D02*
X207Y113D01*
X244Y113D02*
X307Y113D01*
X344Y113D02*
X407Y113D01*
X144Y112D02*
X206Y112D01*
X244Y112D02*
X306Y112D01*
X344Y112D02*
X406Y112D01*
X145Y111D02*
X205Y111D01*
X245Y111D02*
X305Y111D01*
X345Y111D02*
X405Y111D01*
X146Y110D02*
X204Y110D01*
X246Y110D02*
X304Y110D01*
X346Y110D02*
X404Y110D01*
X147Y109D02*
X203Y109D01*
X247Y109D02*
X303Y109D01*
X347Y109D02*
X403Y109D01*
X148Y108D02*
X202Y108D01*
X248Y108D02*
X302Y108D01*
X348Y108D02*
X402Y108D01*
X149Y107D02*
X201Y107D01*
X249Y107D02*
X301Y107D01*
X349Y107D02*
X401Y107D01*
X150Y106D02*
X200Y106D01*
X250Y106D02*
X300Y106D01*
X350Y106D02*
X400Y106D01*
X152Y105D02*
X199Y105D01*
X252Y105D02*
X299Y105D01*
X352Y105D02*
X399Y105D01*
X153Y104D02*
X197Y104D01*
X253Y104D02*
X297Y104D01*
X353Y104D02*
X397Y104D01*
X155Y103D02*
X196Y103D01*
X255Y103D02*
X296Y103D01*
X355Y103D02*
X396Y103D01*
X156Y102D02*
X194Y102D01*
X256Y102D02*
X294Y102D01*
X356Y102D02*
X394Y102D01*
X158Y101D02*
X192Y101D01*
X258Y101D02*
X292Y101D01*
X358Y101D02*
X392Y101D01*
X160Y100D02*
X190Y100D01*
X260Y100D02*
X290Y100D01*
X360Y100D02*
X390Y100D01*
X163Y99D02*
X187Y99D01*
X263Y99D02*
X287Y99D01*
X363Y99D02*
X387Y99D01*
X167Y98D02*
X184Y98D01*
X267Y98D02*
X284Y98D01*
X367Y98D02*
X383Y98D01*
X174Y97D02*
X176Y97D01*
X274Y97D02*
X276Y97D01*
X374Y97D02*
X376Y97D01*
D02*
G04 End of Mask1*
M02*