G04 MADE WITH FRITZING*
G04 WWW.FRITZING.ORG*
G04 DOUBLE SIDED*
G04 HOLES PLATED*
G04 CONTOUR ON CENTER OF CONTOUR VECTOR*
%ASAXBY*%
%FSLAX23Y23*%
%MOIN*%
%OFA0B0*%
%SFA1.0B1.0*%
%ADD10C,0.049370*%
%ADD11C,0.148425*%
%ADD12C,0.105000*%
%ADD13C,0.061496*%
%ADD14C,0.072000*%
%ADD15C,0.065433*%
%ADD16C,0.088000*%
%ADD17R,0.105000X0.105000*%
%ADD18R,0.088000X0.088000*%
%ADD19R,0.069055X0.065118*%
%ADD20R,0.001000X0.001000*%
%LNMASK1*%
G90*
G70*
G54D10*
X1927Y1310D03*
X2101Y562D03*
G54D11*
X227Y2235D03*
G54D12*
X719Y2235D03*
G54D13*
X707Y2125D03*
G54D14*
X177Y585D03*
X177Y685D03*
X177Y785D03*
X177Y885D03*
X177Y985D03*
X177Y1085D03*
X177Y1185D03*
X177Y1285D03*
X177Y1385D03*
G54D11*
X927Y2235D03*
G54D14*
X177Y1485D03*
X177Y1585D03*
X177Y1685D03*
X177Y1785D03*
X177Y1885D03*
X177Y1985D03*
X177Y2085D03*
X977Y1685D03*
X977Y1585D03*
X977Y1485D03*
X977Y1385D03*
X977Y1285D03*
X977Y1185D03*
X977Y1085D03*
X977Y985D03*
X977Y885D03*
X977Y785D03*
X977Y685D03*
X977Y585D03*
G54D13*
X447Y2125D03*
G54D12*
X435Y2235D03*
G54D15*
X1446Y435D03*
X1702Y435D03*
X1446Y435D03*
X1702Y435D03*
G54D16*
X452Y260D03*
X452Y160D03*
X2027Y2135D03*
X2027Y2035D03*
X2027Y1935D03*
X2027Y1835D03*
X2027Y1735D03*
X2027Y1635D03*
X2027Y1535D03*
X2027Y1435D03*
X2027Y2135D03*
X2027Y2035D03*
X2027Y1935D03*
X2027Y1835D03*
X2027Y1735D03*
X2027Y1635D03*
X2027Y1535D03*
X2027Y1435D03*
X2127Y1435D03*
X2127Y1535D03*
X2127Y1635D03*
X2127Y1735D03*
X2127Y1835D03*
X2127Y1935D03*
X2127Y2035D03*
X2127Y2135D03*
X1827Y2135D03*
X1827Y2035D03*
X1827Y1935D03*
X1827Y1835D03*
X1827Y1735D03*
X1827Y1635D03*
X1827Y1535D03*
X1827Y1435D03*
X1827Y2135D03*
X1827Y2035D03*
X1827Y1935D03*
X1827Y1835D03*
X1827Y1735D03*
X1827Y1635D03*
X1827Y1535D03*
X1827Y1435D03*
X1927Y1435D03*
X1927Y1535D03*
X1927Y1635D03*
X1927Y1735D03*
X1927Y1835D03*
X1927Y1935D03*
X1927Y2035D03*
X1927Y2135D03*
X1627Y2135D03*
X1627Y2035D03*
X1627Y1935D03*
X1627Y1835D03*
X1627Y1735D03*
X1627Y1635D03*
X1627Y1535D03*
X1627Y1435D03*
X1627Y2135D03*
X1627Y2035D03*
X1627Y1935D03*
X1627Y1835D03*
X1627Y1735D03*
X1627Y1635D03*
X1627Y1535D03*
X1627Y1435D03*
X1727Y1435D03*
X1727Y1535D03*
X1727Y1635D03*
X1727Y1735D03*
X1727Y1835D03*
X1727Y1935D03*
X1727Y2035D03*
X1727Y2135D03*
X1427Y2135D03*
X1427Y2035D03*
X1427Y1935D03*
X1427Y1835D03*
X1427Y1735D03*
X1427Y1635D03*
X1427Y1535D03*
X1427Y1435D03*
X1427Y2135D03*
X1427Y2035D03*
X1427Y1935D03*
X1427Y1835D03*
X1427Y1735D03*
X1427Y1635D03*
X1427Y1535D03*
X1427Y1435D03*
X1527Y1435D03*
X1527Y1535D03*
X1527Y1635D03*
X1527Y1735D03*
X1527Y1835D03*
X1527Y1935D03*
X1527Y2035D03*
X1527Y2135D03*
G54D10*
X1753Y585D03*
X2027Y609D03*
X527Y886D03*
X1077Y410D03*
X1077Y660D03*
X577Y985D03*
X1152Y435D03*
X1152Y735D03*
G54D16*
X1427Y1135D03*
X1527Y1135D03*
X1627Y1135D03*
X1727Y1135D03*
X1827Y1135D03*
X1927Y1135D03*
X2027Y1135D03*
X2127Y1135D03*
G54D10*
X652Y1085D03*
X1227Y485D03*
X1727Y810D03*
X776Y585D03*
X925Y186D03*
X2177Y385D03*
X1352Y987D03*
X2277Y959D03*
X2277Y561D03*
X253Y1687D03*
X252Y2110D03*
X302Y1635D03*
X302Y2061D03*
X1252Y2160D03*
X1252Y2285D03*
G54D17*
X719Y2235D03*
X435Y2235D03*
G54D18*
X452Y260D03*
G54D19*
X2252Y1885D03*
X2252Y1966D03*
G54D20*
X400Y2151D02*
X472Y2151D01*
X681Y2151D02*
X752Y2151D01*
X400Y2150D02*
X472Y2150D01*
X681Y2150D02*
X752Y2150D01*
X400Y2149D02*
X472Y2149D01*
X681Y2149D02*
X752Y2149D01*
X400Y2148D02*
X472Y2148D01*
X681Y2148D02*
X752Y2148D01*
X400Y2147D02*
X472Y2147D01*
X681Y2147D02*
X752Y2147D01*
X400Y2146D02*
X472Y2146D01*
X681Y2146D02*
X752Y2146D01*
X400Y2145D02*
X472Y2145D01*
X681Y2145D02*
X752Y2145D01*
X400Y2144D02*
X472Y2144D01*
X681Y2144D02*
X752Y2144D01*
X400Y2143D02*
X472Y2143D01*
X681Y2143D02*
X752Y2143D01*
X400Y2142D02*
X472Y2142D01*
X681Y2142D02*
X752Y2142D01*
X400Y2141D02*
X441Y2141D01*
X452Y2141D02*
X472Y2141D01*
X681Y2141D02*
X701Y2141D01*
X711Y2141D02*
X752Y2141D01*
X400Y2140D02*
X439Y2140D01*
X454Y2140D02*
X472Y2140D01*
X681Y2140D02*
X699Y2140D01*
X714Y2140D02*
X752Y2140D01*
X400Y2139D02*
X437Y2139D01*
X456Y2139D02*
X472Y2139D01*
X681Y2139D02*
X697Y2139D01*
X716Y2139D02*
X752Y2139D01*
X400Y2138D02*
X436Y2138D01*
X457Y2138D02*
X472Y2138D01*
X681Y2138D02*
X696Y2138D01*
X717Y2138D02*
X752Y2138D01*
X400Y2137D02*
X435Y2137D01*
X458Y2137D02*
X472Y2137D01*
X681Y2137D02*
X695Y2137D01*
X718Y2137D02*
X752Y2137D01*
X400Y2136D02*
X434Y2136D01*
X459Y2136D02*
X472Y2136D01*
X681Y2136D02*
X694Y2136D01*
X719Y2136D02*
X752Y2136D01*
X400Y2135D02*
X433Y2135D01*
X460Y2135D02*
X472Y2135D01*
X681Y2135D02*
X693Y2135D01*
X720Y2135D02*
X752Y2135D01*
X400Y2134D02*
X432Y2134D01*
X460Y2134D02*
X472Y2134D01*
X681Y2134D02*
X692Y2134D01*
X720Y2134D02*
X752Y2134D01*
X400Y2133D02*
X432Y2133D01*
X461Y2133D02*
X472Y2133D01*
X681Y2133D02*
X692Y2133D01*
X721Y2133D02*
X752Y2133D01*
X400Y2132D02*
X431Y2132D01*
X462Y2132D02*
X472Y2132D01*
X681Y2132D02*
X691Y2132D01*
X721Y2132D02*
X752Y2132D01*
X400Y2131D02*
X431Y2131D01*
X462Y2131D02*
X472Y2131D01*
X681Y2131D02*
X691Y2131D01*
X722Y2131D02*
X752Y2131D01*
X400Y2130D02*
X431Y2130D01*
X462Y2130D02*
X472Y2130D01*
X681Y2130D02*
X690Y2130D01*
X722Y2130D02*
X752Y2130D01*
X400Y2129D02*
X430Y2129D01*
X462Y2129D02*
X472Y2129D01*
X681Y2129D02*
X690Y2129D01*
X722Y2129D02*
X752Y2129D01*
X400Y2128D02*
X430Y2128D01*
X462Y2128D02*
X472Y2128D01*
X681Y2128D02*
X690Y2128D01*
X722Y2128D02*
X752Y2128D01*
X400Y2127D02*
X430Y2127D01*
X462Y2127D02*
X472Y2127D01*
X681Y2127D02*
X690Y2127D01*
X722Y2127D02*
X752Y2127D01*
X400Y2126D02*
X430Y2126D01*
X462Y2126D02*
X472Y2126D01*
X681Y2126D02*
X690Y2126D01*
X722Y2126D02*
X752Y2126D01*
X400Y2125D02*
X430Y2125D01*
X462Y2125D02*
X472Y2125D01*
X681Y2125D02*
X690Y2125D01*
X722Y2125D02*
X752Y2125D01*
X400Y2124D02*
X430Y2124D01*
X462Y2124D02*
X472Y2124D01*
X681Y2124D02*
X690Y2124D01*
X722Y2124D02*
X752Y2124D01*
X400Y2123D02*
X430Y2123D01*
X462Y2123D02*
X472Y2123D01*
X681Y2123D02*
X690Y2123D01*
X722Y2123D02*
X752Y2123D01*
X400Y2122D02*
X431Y2122D01*
X462Y2122D02*
X472Y2122D01*
X681Y2122D02*
X690Y2122D01*
X722Y2122D02*
X752Y2122D01*
X400Y2121D02*
X431Y2121D01*
X462Y2121D02*
X472Y2121D01*
X681Y2121D02*
X691Y2121D01*
X722Y2121D02*
X752Y2121D01*
X400Y2120D02*
X431Y2120D01*
X462Y2120D02*
X472Y2120D01*
X681Y2120D02*
X691Y2120D01*
X721Y2120D02*
X752Y2120D01*
X400Y2119D02*
X432Y2119D01*
X461Y2119D02*
X472Y2119D01*
X681Y2119D02*
X692Y2119D01*
X721Y2119D02*
X752Y2119D01*
X400Y2118D02*
X432Y2118D01*
X461Y2118D02*
X472Y2118D01*
X681Y2118D02*
X692Y2118D01*
X720Y2118D02*
X752Y2118D01*
X400Y2117D02*
X433Y2117D01*
X460Y2117D02*
X472Y2117D01*
X681Y2117D02*
X693Y2117D01*
X720Y2117D02*
X752Y2117D01*
X400Y2116D02*
X434Y2116D01*
X459Y2116D02*
X472Y2116D01*
X681Y2116D02*
X694Y2116D01*
X719Y2116D02*
X752Y2116D01*
X400Y2115D02*
X435Y2115D01*
X458Y2115D02*
X472Y2115D01*
X681Y2115D02*
X694Y2115D01*
X718Y2115D02*
X752Y2115D01*
X400Y2114D02*
X436Y2114D01*
X457Y2114D02*
X472Y2114D01*
X681Y2114D02*
X696Y2114D01*
X717Y2114D02*
X752Y2114D01*
X400Y2113D02*
X437Y2113D01*
X456Y2113D02*
X472Y2113D01*
X681Y2113D02*
X697Y2113D01*
X716Y2113D02*
X752Y2113D01*
X400Y2112D02*
X439Y2112D01*
X454Y2112D02*
X472Y2112D01*
X681Y2112D02*
X698Y2112D01*
X714Y2112D02*
X752Y2112D01*
X400Y2111D02*
X441Y2111D01*
X452Y2111D02*
X472Y2111D01*
X681Y2111D02*
X701Y2111D01*
X712Y2111D02*
X752Y2111D01*
X400Y2110D02*
X472Y2110D01*
X681Y2110D02*
X752Y2110D01*
X400Y2109D02*
X472Y2109D01*
X681Y2109D02*
X752Y2109D01*
X400Y2108D02*
X472Y2108D01*
X681Y2108D02*
X752Y2108D01*
X400Y2107D02*
X472Y2107D01*
X681Y2107D02*
X752Y2107D01*
X400Y2106D02*
X472Y2106D01*
X681Y2106D02*
X752Y2106D01*
X400Y2105D02*
X472Y2105D01*
X681Y2105D02*
X752Y2105D01*
X400Y2104D02*
X472Y2104D01*
X681Y2104D02*
X752Y2104D01*
X400Y2103D02*
X472Y2103D01*
X681Y2103D02*
X752Y2103D01*
X400Y2102D02*
X472Y2102D01*
X681Y2102D02*
X752Y2102D01*
X400Y2101D02*
X472Y2101D01*
X681Y2101D02*
X752Y2101D01*
X445Y2100D02*
X448Y2100D01*
X705Y2100D02*
X707Y2100D01*
X2093Y201D02*
X2108Y201D01*
X2193Y201D02*
X2208Y201D01*
X2293Y201D02*
X2308Y201D01*
X2089Y200D02*
X2112Y200D01*
X2189Y200D02*
X2212Y200D01*
X2289Y200D02*
X2312Y200D01*
X2087Y199D02*
X2115Y199D01*
X2187Y199D02*
X2215Y199D01*
X2287Y199D02*
X2315Y199D01*
X2084Y198D02*
X2117Y198D01*
X2184Y198D02*
X2217Y198D01*
X2284Y198D02*
X2317Y198D01*
X2082Y197D02*
X2119Y197D01*
X2182Y197D02*
X2219Y197D01*
X2282Y197D02*
X2319Y197D01*
X2081Y196D02*
X2121Y196D01*
X2181Y196D02*
X2221Y196D01*
X2281Y196D02*
X2321Y196D01*
X2079Y195D02*
X2123Y195D01*
X2179Y195D02*
X2223Y195D01*
X2279Y195D02*
X2323Y195D01*
X2078Y194D02*
X2124Y194D01*
X2178Y194D02*
X2224Y194D01*
X2278Y194D02*
X2324Y194D01*
X2076Y193D02*
X2125Y193D01*
X2176Y193D02*
X2225Y193D01*
X2276Y193D02*
X2325Y193D01*
X2075Y192D02*
X2127Y192D01*
X2175Y192D02*
X2227Y192D01*
X2275Y192D02*
X2327Y192D01*
X2074Y191D02*
X2128Y191D01*
X2174Y191D02*
X2228Y191D01*
X2274Y191D02*
X2328Y191D01*
X2073Y190D02*
X2129Y190D01*
X2173Y190D02*
X2229Y190D01*
X2273Y190D02*
X2329Y190D01*
X2072Y189D02*
X2130Y189D01*
X2172Y189D02*
X2230Y189D01*
X2272Y189D02*
X2330Y189D01*
X2071Y188D02*
X2131Y188D01*
X2171Y188D02*
X2231Y188D01*
X2271Y188D02*
X2331Y188D01*
X2070Y187D02*
X2131Y187D01*
X2170Y187D02*
X2231Y187D01*
X2270Y187D02*
X2331Y187D01*
X2070Y186D02*
X2132Y186D01*
X2170Y186D02*
X2232Y186D01*
X2270Y186D02*
X2332Y186D01*
X2069Y185D02*
X2133Y185D01*
X2169Y185D02*
X2233Y185D01*
X2269Y185D02*
X2333Y185D01*
X2068Y184D02*
X2134Y184D01*
X2168Y184D02*
X2234Y184D01*
X2268Y184D02*
X2334Y184D01*
X2068Y183D02*
X2134Y183D01*
X2168Y183D02*
X2234Y183D01*
X2268Y183D02*
X2334Y183D01*
X2067Y182D02*
X2135Y182D01*
X2167Y182D02*
X2235Y182D01*
X2267Y182D02*
X2335Y182D01*
X2066Y181D02*
X2135Y181D01*
X2166Y181D02*
X2235Y181D01*
X2266Y181D02*
X2335Y181D01*
X2066Y180D02*
X2136Y180D01*
X2166Y180D02*
X2236Y180D01*
X2266Y180D02*
X2336Y180D01*
X2065Y179D02*
X2137Y179D01*
X2165Y179D02*
X2236Y179D01*
X2265Y179D02*
X2336Y179D01*
X2065Y178D02*
X2137Y178D01*
X2165Y178D02*
X2237Y178D01*
X2265Y178D02*
X2337Y178D01*
X2064Y177D02*
X2137Y177D01*
X2164Y177D02*
X2237Y177D01*
X2264Y177D02*
X2337Y177D01*
X2064Y176D02*
X2138Y176D01*
X2164Y176D02*
X2238Y176D01*
X2264Y176D02*
X2338Y176D01*
X2064Y175D02*
X2138Y175D01*
X2164Y175D02*
X2238Y175D01*
X2264Y175D02*
X2338Y175D01*
X2063Y174D02*
X2138Y174D01*
X2163Y174D02*
X2238Y174D01*
X2263Y174D02*
X2338Y174D01*
X2063Y173D02*
X2139Y173D01*
X2163Y173D02*
X2239Y173D01*
X2263Y173D02*
X2339Y173D01*
X2063Y172D02*
X2139Y172D01*
X2163Y172D02*
X2239Y172D01*
X2263Y172D02*
X2339Y172D01*
X2063Y171D02*
X2139Y171D01*
X2163Y171D02*
X2239Y171D01*
X2263Y171D02*
X2339Y171D01*
X2062Y170D02*
X2139Y170D01*
X2162Y170D02*
X2239Y170D01*
X2262Y170D02*
X2339Y170D01*
X2062Y169D02*
X2140Y169D01*
X2162Y169D02*
X2240Y169D01*
X2262Y169D02*
X2340Y169D01*
X2062Y168D02*
X2140Y168D01*
X2162Y168D02*
X2240Y168D01*
X2262Y168D02*
X2340Y168D01*
X2062Y167D02*
X2140Y167D01*
X2162Y167D02*
X2240Y167D01*
X2262Y167D02*
X2340Y167D01*
X2062Y166D02*
X2140Y166D01*
X2162Y166D02*
X2240Y166D01*
X2262Y166D02*
X2340Y166D01*
X2062Y165D02*
X2140Y165D01*
X2162Y165D02*
X2240Y165D01*
X2262Y165D02*
X2340Y165D01*
X2062Y164D02*
X2140Y164D01*
X2162Y164D02*
X2240Y164D01*
X2261Y164D02*
X2340Y164D01*
X2061Y163D02*
X2140Y163D01*
X2161Y163D02*
X2240Y163D01*
X2261Y163D02*
X2340Y163D01*
X2061Y162D02*
X2140Y162D01*
X2161Y162D02*
X2240Y162D01*
X2261Y162D02*
X2340Y162D01*
X2061Y161D02*
X2140Y161D01*
X2161Y161D02*
X2240Y161D01*
X2261Y161D02*
X2340Y161D01*
X2062Y160D02*
X2140Y160D01*
X2162Y160D02*
X2240Y160D01*
X2261Y160D02*
X2340Y160D01*
X2062Y159D02*
X2140Y159D01*
X2162Y159D02*
X2240Y159D01*
X2262Y159D02*
X2340Y159D01*
X2062Y158D02*
X2140Y158D01*
X2162Y158D02*
X2240Y158D01*
X2262Y158D02*
X2340Y158D01*
X2062Y157D02*
X2140Y157D01*
X2162Y157D02*
X2240Y157D01*
X2262Y157D02*
X2340Y157D01*
X2062Y156D02*
X2140Y156D01*
X2162Y156D02*
X2240Y156D01*
X2262Y156D02*
X2340Y156D01*
X2062Y155D02*
X2140Y155D01*
X2162Y155D02*
X2240Y155D01*
X2262Y155D02*
X2340Y155D01*
X2062Y154D02*
X2140Y154D01*
X2162Y154D02*
X2240Y154D01*
X2262Y154D02*
X2339Y154D01*
X2063Y153D02*
X2139Y153D01*
X2163Y153D02*
X2239Y153D01*
X2262Y153D02*
X2339Y153D01*
X2063Y152D02*
X2139Y152D01*
X2163Y152D02*
X2239Y152D01*
X2263Y152D02*
X2339Y152D01*
X2063Y151D02*
X2139Y151D01*
X2163Y151D02*
X2239Y151D01*
X2263Y151D02*
X2339Y151D01*
X2063Y150D02*
X2139Y150D01*
X2163Y150D02*
X2239Y150D01*
X2263Y150D02*
X2339Y150D01*
X2064Y149D02*
X2138Y149D01*
X2164Y149D02*
X2238Y149D01*
X2264Y149D02*
X2338Y149D01*
X2064Y148D02*
X2138Y148D01*
X2164Y148D02*
X2238Y148D01*
X2264Y148D02*
X2338Y148D01*
X2064Y147D02*
X2138Y147D01*
X2164Y147D02*
X2237Y147D01*
X2264Y147D02*
X2337Y147D01*
X2065Y146D02*
X2137Y146D01*
X2165Y146D02*
X2237Y146D01*
X2265Y146D02*
X2337Y146D01*
X2065Y145D02*
X2137Y145D01*
X2165Y145D02*
X2237Y145D01*
X2265Y145D02*
X2337Y145D01*
X2066Y144D02*
X2136Y144D01*
X2166Y144D02*
X2236Y144D01*
X2266Y144D02*
X2336Y144D01*
X2066Y143D02*
X2136Y143D01*
X2166Y143D02*
X2236Y143D01*
X2266Y143D02*
X2336Y143D01*
X2067Y142D02*
X2135Y142D01*
X2167Y142D02*
X2235Y142D01*
X2267Y142D02*
X2335Y142D01*
X2067Y141D02*
X2134Y141D01*
X2167Y141D02*
X2234Y141D01*
X2267Y141D02*
X2334Y141D01*
X2068Y140D02*
X2134Y140D01*
X2168Y140D02*
X2234Y140D01*
X2268Y140D02*
X2334Y140D01*
X2069Y139D02*
X2133Y139D01*
X2169Y139D02*
X2233Y139D01*
X2269Y139D02*
X2333Y139D01*
X2069Y138D02*
X2132Y138D01*
X2169Y138D02*
X2232Y138D01*
X2269Y138D02*
X2332Y138D01*
X2070Y137D02*
X2132Y137D01*
X2170Y137D02*
X2232Y137D01*
X2270Y137D02*
X2332Y137D01*
X2071Y136D02*
X2131Y136D01*
X2171Y136D02*
X2231Y136D01*
X2271Y136D02*
X2331Y136D01*
X2072Y135D02*
X2130Y135D01*
X2172Y135D02*
X2230Y135D01*
X2272Y135D02*
X2330Y135D01*
X2073Y134D02*
X2129Y134D01*
X2173Y134D02*
X2229Y134D01*
X2273Y134D02*
X2329Y134D01*
X2074Y133D02*
X2128Y133D01*
X2174Y133D02*
X2228Y133D01*
X2274Y133D02*
X2328Y133D01*
X2075Y132D02*
X2127Y132D01*
X2175Y132D02*
X2227Y132D01*
X2275Y132D02*
X2327Y132D01*
X2076Y131D02*
X2126Y131D01*
X2176Y131D02*
X2226Y131D01*
X2276Y131D02*
X2326Y131D01*
X2077Y130D02*
X2124Y130D01*
X2177Y130D02*
X2224Y130D01*
X2277Y130D02*
X2324Y130D01*
X2079Y129D02*
X2123Y129D01*
X2179Y129D02*
X2223Y129D01*
X2279Y129D02*
X2323Y129D01*
X2080Y128D02*
X2121Y128D01*
X2180Y128D02*
X2221Y128D01*
X2280Y128D02*
X2321Y128D01*
X2082Y127D02*
X2120Y127D01*
X2182Y127D02*
X2220Y127D01*
X2282Y127D02*
X2320Y127D01*
X2084Y126D02*
X2118Y126D01*
X2184Y126D02*
X2218Y126D01*
X2284Y126D02*
X2318Y126D01*
X2086Y125D02*
X2116Y125D01*
X2186Y125D02*
X2216Y125D01*
X2286Y125D02*
X2316Y125D01*
X2089Y124D02*
X2113Y124D01*
X2189Y124D02*
X2213Y124D01*
X2289Y124D02*
X2313Y124D01*
X2093Y123D02*
X2109Y123D01*
X2192Y123D02*
X2209Y123D01*
X2292Y123D02*
X2309Y123D01*
X2100Y122D02*
X2102Y122D01*
X2200Y122D02*
X2202Y122D01*
X2300Y122D02*
X2302Y122D01*
D02*
G04 End of Mask1*
M02*