; NON-PLATED HOLES START AT T1
; THROUGH (PLATED) HOLES START AT T100
M48
INCH
T100C0.030000
T101C0.035433
T102C0.038000
T103C0.015748
T104C0.098425
T105C0.031496
%
T100
X022256Y001604
X002756Y001354
X012506Y012354
X012506Y013354
X003756Y001354
X012506Y011353
X023256Y001604
X012506Y016354
X012506Y018354
X001756Y001354
X012506Y015354
X012506Y014354
X021256Y001604
X012506Y017354
T101
X002256Y010854
X002256Y006854
X010256Y005854
X010256Y007854
X010256Y016854
X002256Y018854
X002256Y017854
X002256Y014854
X010256Y008854
X010256Y010854
X004839Y022352
X010256Y013854
X002256Y007854
X010256Y009854
X010256Y014854
X002256Y013854
X002256Y019854
X002256Y011854
X002256Y008854
X010256Y015854
X002256Y009854
X002256Y020854
X010256Y011854
X002256Y016854
X010256Y012854
X002256Y005854
X010256Y006854
X002256Y012854
X007673Y022352
X002256Y015854
T102
X016256Y021354
X016256Y020354
X016256Y018354
X017256Y019354
X019256Y015354
X015756Y011354
X020256Y017354
X017256Y015354
X021756Y011354
X018256Y014354
X016256Y015354
X018256Y019354
X018256Y015354
X015256Y021354
X017256Y021354
X017256Y017354
X015256Y016354
X017256Y020354
X022256Y015354
X021256Y016354
X017256Y014354
X015256Y020354
X017256Y016354
X016756Y011354
X021256Y017354
X015256Y015354
X017006Y003104
X022256Y018354
X020256Y016354
X019256Y018354
X020256Y020354
X016256Y014354
X019256Y017354
X000756Y017854
X022256Y019354
X016256Y017354
X018256Y016354
X022256Y020354
X017756Y011354
X000756Y019854
X019256Y019354
X000756Y016854
X017006Y006354
X018256Y020354
X021256Y014354
X016006Y003104
X022256Y016354
X020256Y021354
X021256Y020354
X015006Y003104
X017256Y018354
X019256Y020354
X000756Y018854
X000756Y015854
X018756Y011354
X022256Y017354
X016256Y019354
X021256Y019354
X021256Y021354
X018256Y017354
X018256Y021354
X018256Y018354
X020256Y014354
X021256Y015354
X019256Y016354
X020256Y015354
X020256Y019354
X014756Y011354
X015256Y014354
X020756Y011354
X020256Y018354
X000756Y020854
X019256Y021354
X015256Y017354
X015006Y006354
X016256Y016354
X021256Y018354
X022256Y021354
X015256Y019354
X019756Y011354
X019256Y014354
X022256Y014354
X015256Y018354
T103
X014002Y009867
X007006Y010854
X005256Y002604
X012006Y007354
X018019Y005849
X004228Y011882
X013755Y012614
X013006Y022854
X022259Y006615
X005754Y008862
X008250Y005849
X019756Y013104
X022256Y003854
X003502Y020610
X012006Y004354
X023254Y009593
X003015Y016867
X017756Y008104
X011256Y006604
X012754Y004845
X020758Y006093
X023254Y005606
X009741Y001862
X013006Y021604
X011256Y004104
X003502Y016349
X006256Y009854
X003006Y021104
X007514Y018088
X021256Y005604
T104
X009756Y022354
X002756Y022354
T105
X004957Y021249
X007555Y021249
T00
M30
