G04 MADE WITH FRITZING*
G04 WWW.FRITZING.ORG*
G04 DOUBLE SIDED*
G04 HOLES PLATED*
G04 CONTOUR ON CENTER OF CONTOUR VECTOR*
%ASAXBY*%
%FSLAX23Y23*%
%MOIN*%
%OFA0B0*%
%SFA1.0B1.0*%
%ADD10C,0.039370*%
%ADD11C,0.078000*%
%ADD12C,0.138425*%
%ADD13C,0.095000*%
%ADD14C,0.051496*%
%ADD15C,0.062000*%
%ADD16C,0.070000*%
%ADD17R,0.059055X0.055118*%
%ADD18R,0.095000X0.095000*%
%ADD19R,0.078000X0.078000*%
%ADD20C,0.024000*%
%ADD21R,0.001000X0.001000*%
%LNCOPPER1*%
G90*
G70*
G54D10*
X1753Y585D03*
X2027Y609D03*
X527Y886D03*
X1077Y410D03*
X1077Y660D03*
X577Y985D03*
X1152Y435D03*
X1152Y735D03*
G54D11*
X1427Y1135D03*
X1527Y1135D03*
X1627Y1135D03*
X1727Y1135D03*
X1827Y1135D03*
X1927Y1135D03*
X2027Y1135D03*
X2127Y1135D03*
G54D10*
X652Y1085D03*
X1227Y485D03*
X1727Y810D03*
X776Y585D03*
X925Y186D03*
X2177Y385D03*
X1352Y987D03*
X2277Y959D03*
X2277Y561D03*
X253Y1687D03*
X252Y2110D03*
X302Y1635D03*
X302Y2061D03*
X1252Y2160D03*
X1252Y2285D03*
X1927Y1310D03*
X2101Y562D03*
G54D12*
X227Y2235D03*
G54D13*
X719Y2235D03*
G54D14*
X707Y2125D03*
G54D15*
X177Y585D03*
X177Y685D03*
X177Y785D03*
X177Y885D03*
X177Y985D03*
X177Y1085D03*
X177Y1185D03*
X177Y1285D03*
X177Y1385D03*
G54D12*
X927Y2235D03*
G54D15*
X177Y1485D03*
X177Y1585D03*
X177Y1685D03*
X177Y1785D03*
X177Y1885D03*
X177Y1985D03*
X177Y2085D03*
X977Y1685D03*
X977Y1585D03*
X977Y1485D03*
X977Y1385D03*
X977Y1285D03*
X977Y1185D03*
X977Y1085D03*
X977Y985D03*
X977Y885D03*
X977Y785D03*
X977Y685D03*
X977Y585D03*
G54D14*
X447Y2125D03*
G54D13*
X435Y2235D03*
G54D16*
X1446Y435D03*
X1702Y435D03*
X1446Y435D03*
X1702Y435D03*
G54D11*
X452Y260D03*
X452Y160D03*
G54D16*
X2102Y160D03*
X2202Y160D03*
X2302Y160D03*
G54D11*
X2027Y2135D03*
X2027Y2035D03*
X2027Y1935D03*
X2027Y1835D03*
X2027Y1735D03*
X2027Y1635D03*
X2027Y1535D03*
X2027Y1435D03*
X2027Y2135D03*
X2027Y2035D03*
X2027Y1935D03*
X2027Y1835D03*
X2027Y1735D03*
X2027Y1635D03*
X2027Y1535D03*
X2027Y1435D03*
X2127Y1435D03*
X2127Y1535D03*
X2127Y1635D03*
X2127Y1735D03*
X2127Y1835D03*
X2127Y1935D03*
X2127Y2035D03*
X2127Y2135D03*
X1827Y2135D03*
X1827Y2035D03*
X1827Y1935D03*
X1827Y1835D03*
X1827Y1735D03*
X1827Y1635D03*
X1827Y1535D03*
X1827Y1435D03*
X1827Y2135D03*
X1827Y2035D03*
X1827Y1935D03*
X1827Y1835D03*
X1827Y1735D03*
X1827Y1635D03*
X1827Y1535D03*
X1827Y1435D03*
X1927Y1435D03*
X1927Y1535D03*
X1927Y1635D03*
X1927Y1735D03*
X1927Y1835D03*
X1927Y1935D03*
X1927Y2035D03*
X1927Y2135D03*
X1627Y2135D03*
X1627Y2035D03*
X1627Y1935D03*
X1627Y1835D03*
X1627Y1735D03*
X1627Y1635D03*
X1627Y1535D03*
X1627Y1435D03*
X1627Y2135D03*
X1627Y2035D03*
X1627Y1935D03*
X1627Y1835D03*
X1627Y1735D03*
X1627Y1635D03*
X1627Y1535D03*
X1627Y1435D03*
X1727Y1435D03*
X1727Y1535D03*
X1727Y1635D03*
X1727Y1735D03*
X1727Y1835D03*
X1727Y1935D03*
X1727Y2035D03*
X1727Y2135D03*
X1427Y2135D03*
X1427Y2035D03*
X1427Y1935D03*
X1427Y1835D03*
X1427Y1735D03*
X1427Y1635D03*
X1427Y1535D03*
X1427Y1435D03*
X1427Y2135D03*
X1427Y2035D03*
X1427Y1935D03*
X1427Y1835D03*
X1427Y1735D03*
X1427Y1635D03*
X1427Y1535D03*
X1427Y1435D03*
X1527Y1435D03*
X1527Y1535D03*
X1527Y1635D03*
X1527Y1735D03*
X1527Y1835D03*
X1527Y1935D03*
X1527Y2035D03*
X1527Y2135D03*
G54D16*
X1202Y1835D03*
X1202Y1735D03*
X1202Y1635D03*
X1202Y1535D03*
X1202Y1435D03*
X1202Y1335D03*
X1202Y1235D03*
X1202Y1135D03*
G54D10*
X2177Y662D03*
G54D17*
X2252Y1885D03*
X2252Y1966D03*
G54D18*
X719Y2235D03*
X435Y2235D03*
G54D19*
X452Y260D03*
G54D20*
X558Y985D02*
X206Y985D01*
D02*
X1077Y641D02*
X1077Y429D01*
D02*
X508Y886D02*
X206Y885D01*
D02*
X2014Y596D02*
X2003Y585D01*
D02*
X2003Y585D02*
X1772Y585D01*
D02*
X2201Y287D02*
X2202Y187D01*
D02*
X2228Y311D02*
X2201Y287D01*
D02*
X2252Y311D02*
X2228Y311D01*
D02*
X2277Y335D02*
X2252Y311D01*
D02*
X2277Y542D02*
X2277Y335D01*
D02*
X2252Y987D02*
X2264Y974D01*
D02*
X1371Y987D02*
X2252Y987D01*
D02*
X901Y211D02*
X912Y200D01*
D02*
X901Y661D02*
X901Y211D01*
D02*
X948Y685D02*
X925Y685D01*
D02*
X925Y685D02*
X901Y661D01*
D02*
X776Y566D02*
X776Y186D01*
D02*
X776Y186D02*
X752Y162D01*
D02*
X752Y162D02*
X482Y161D01*
D02*
X1251Y810D02*
X1708Y810D01*
D02*
X1227Y786D02*
X1251Y810D01*
D02*
X1227Y504D02*
X1227Y786D01*
D02*
X206Y1085D02*
X633Y1085D01*
D02*
X1152Y716D02*
X1152Y454D01*
D02*
X1252Y2266D02*
X1252Y2179D01*
D02*
X302Y2042D02*
X302Y1654D01*
D02*
X252Y2091D02*
X253Y1706D01*
D02*
X1452Y110D02*
X1447Y407D01*
D02*
X1428Y86D02*
X1452Y110D01*
D02*
X877Y86D02*
X1428Y86D01*
D02*
X852Y110D02*
X877Y86D01*
D02*
X852Y959D02*
X852Y110D01*
D02*
X948Y986D02*
X877Y987D01*
D02*
X877Y987D02*
X852Y959D01*
D02*
X2052Y2210D02*
X2228Y2210D01*
D02*
X2028Y2185D02*
X2052Y2210D01*
D02*
X2228Y2210D02*
X2252Y2186D01*
D02*
X2252Y1863D02*
X2252Y1337D01*
D02*
X2252Y2186D02*
X2252Y1988D01*
D02*
X2252Y1337D02*
X2228Y1309D01*
D02*
X2228Y1309D02*
X1946Y1310D01*
D02*
X2028Y2166D02*
X2028Y2185D01*
D02*
X2102Y187D02*
X2101Y543D01*
D02*
X1927Y1291D02*
X1927Y1166D01*
D02*
X1757Y2135D02*
X1797Y2135D01*
D02*
X1657Y2135D02*
X1697Y2135D01*
D02*
X1557Y2135D02*
X1597Y2135D01*
D02*
X1497Y2135D02*
X1457Y2135D01*
D02*
X2127Y1505D02*
X2127Y1466D01*
D02*
X2127Y1605D02*
X2127Y1566D01*
D02*
X2127Y1705D02*
X2127Y1666D01*
D02*
X2127Y1805D02*
X2127Y1766D01*
D02*
X2127Y1905D02*
X2127Y1866D01*
D02*
X2127Y2005D02*
X2127Y1966D01*
D02*
X2127Y2105D02*
X2127Y2066D01*
D02*
X2057Y2135D02*
X2097Y2135D01*
D02*
X1957Y2135D02*
X1997Y2135D01*
D02*
X1857Y2135D02*
X1897Y2135D01*
D02*
X1427Y1666D02*
X1427Y1705D01*
D02*
X1427Y1566D02*
X1427Y1605D01*
D02*
X1427Y1466D02*
X1427Y1505D01*
D02*
X1497Y1435D02*
X1457Y1435D01*
D02*
X1597Y1435D02*
X1557Y1435D01*
D02*
X1697Y1435D02*
X1657Y1435D01*
D02*
X1797Y1435D02*
X1757Y1435D01*
D02*
X1897Y1435D02*
X1857Y1435D01*
D02*
X1997Y1435D02*
X1957Y1435D01*
D02*
X2097Y1435D02*
X2057Y1435D01*
D02*
X2097Y1535D02*
X2057Y1535D01*
D02*
X2027Y1466D02*
X2027Y1505D01*
D02*
X2097Y2035D02*
X2057Y2035D01*
D02*
X2027Y2066D02*
X2027Y2105D01*
D02*
X1527Y2105D02*
X1527Y2066D01*
D02*
X1457Y2035D02*
X1497Y2035D01*
D02*
X1427Y2066D02*
X1427Y2105D01*
D02*
X1427Y1966D02*
X1427Y2005D01*
D02*
X1427Y1866D02*
X1427Y1905D01*
D02*
X1427Y1766D02*
X1427Y1805D01*
D02*
X2027Y1666D02*
X2027Y1705D01*
D02*
X2027Y1566D02*
X2027Y1605D01*
D02*
X1957Y1535D02*
X1997Y1535D01*
D02*
X1857Y1535D02*
X1897Y1535D01*
D02*
X1757Y1535D02*
X1797Y1535D01*
D02*
X1657Y1535D02*
X1697Y1535D01*
D02*
X1557Y1535D02*
X1597Y1535D01*
D02*
X1527Y1566D02*
X1527Y1605D01*
D02*
X1497Y1535D02*
X1457Y1535D01*
D02*
X1527Y1466D02*
X1527Y1505D01*
D02*
X1797Y2035D02*
X1757Y2035D01*
D02*
X1697Y2035D02*
X1657Y2035D01*
D02*
X1597Y2035D02*
X1557Y2035D01*
D02*
X1527Y1666D02*
X1527Y1705D01*
D02*
X1527Y1766D02*
X1527Y1805D01*
D02*
X1527Y1866D02*
X1527Y1905D01*
D02*
X1527Y1966D02*
X1527Y2005D01*
D02*
X2027Y1966D02*
X2027Y2005D01*
D02*
X2027Y1866D02*
X2027Y1905D01*
D02*
X2027Y1766D02*
X2027Y1805D01*
D02*
X1457Y1635D02*
X1497Y1635D01*
D02*
X1627Y1466D02*
X1627Y1505D01*
D02*
X1927Y1466D02*
X1927Y1505D01*
D02*
X1827Y1466D02*
X1827Y1505D01*
D02*
X1727Y1466D02*
X1727Y1505D01*
D02*
X1927Y2066D02*
X1927Y2105D01*
D02*
X1627Y2066D02*
X1627Y2105D01*
D02*
X1727Y2066D02*
X1727Y2105D01*
D02*
X1827Y2066D02*
X1827Y2105D01*
D02*
X1897Y2035D02*
X1857Y2035D01*
D02*
X1627Y1966D02*
X1627Y2005D01*
D02*
X1597Y1935D02*
X1557Y1935D01*
D02*
X2097Y1635D02*
X2057Y1635D01*
D02*
X2097Y1735D02*
X2057Y1735D01*
D02*
X2097Y1835D02*
X2057Y1835D01*
D02*
X2097Y1935D02*
X2057Y1935D01*
D02*
X1457Y1935D02*
X1497Y1935D01*
D02*
X1457Y1835D02*
X1497Y1835D01*
D02*
X1457Y1735D02*
X1497Y1735D01*
D02*
X1597Y1735D02*
X1557Y1735D01*
D02*
X1627Y1666D02*
X1627Y1705D01*
D02*
X1557Y1835D02*
X1597Y1835D01*
D02*
X1627Y1866D02*
X1627Y1905D01*
D02*
X1597Y1635D02*
X1557Y1635D01*
D02*
X1627Y1605D02*
X1627Y1566D01*
D02*
X1997Y1635D02*
X1957Y1635D01*
D02*
X1927Y1566D02*
X1927Y1605D01*
D02*
X1997Y1935D02*
X1957Y1935D01*
D02*
X1927Y1966D02*
X1927Y2005D01*
D02*
X1827Y1566D02*
X1827Y1605D01*
D02*
X1727Y1605D02*
X1727Y1566D01*
D02*
X1697Y1635D02*
X1657Y1635D01*
D02*
X1927Y1905D02*
X1927Y1866D01*
D02*
X1927Y1766D02*
X1927Y1805D01*
D02*
X1997Y1835D02*
X1957Y1835D01*
D02*
X1957Y1735D02*
X1997Y1735D01*
D02*
X1927Y1666D02*
X1927Y1705D01*
D02*
X1627Y1766D02*
X1627Y1805D01*
D02*
X1727Y1666D02*
X1727Y1705D01*
D02*
X1827Y1905D02*
X1827Y1866D01*
D02*
X1727Y1905D02*
X1727Y1866D01*
D02*
X1897Y1935D02*
X1857Y1935D01*
D02*
X1827Y1966D02*
X1827Y2005D01*
D02*
X1727Y1966D02*
X1727Y2005D01*
D02*
X1657Y1935D02*
X1697Y1935D01*
D02*
X1897Y1635D02*
X1857Y1635D01*
D02*
X1797Y1735D02*
X1757Y1735D01*
D02*
X1797Y1635D02*
X1757Y1635D01*
D02*
X1827Y1766D02*
X1827Y1805D01*
D02*
X1727Y1766D02*
X1727Y1805D01*
D02*
X1857Y1735D02*
X1897Y1735D01*
D02*
X1827Y1666D02*
X1827Y1705D01*
D02*
X1897Y1835D02*
X1857Y1835D01*
D02*
X1697Y1835D02*
X1657Y1835D01*
D02*
X1697Y1735D02*
X1657Y1735D01*
D02*
X1797Y1935D02*
X1757Y1935D01*
D02*
X1797Y1835D02*
X1757Y1835D01*
D02*
X2177Y404D02*
X2177Y643D01*
G54D21*
X405Y2146D02*
X441Y2146D01*
X452Y2146D02*
X467Y2146D01*
X686Y2146D02*
X701Y2146D01*
X712Y2146D02*
X747Y2146D01*
X405Y2145D02*
X438Y2145D01*
X455Y2145D02*
X467Y2145D01*
X686Y2145D02*
X698Y2145D01*
X715Y2145D02*
X747Y2145D01*
X405Y2144D02*
X436Y2144D01*
X457Y2144D02*
X467Y2144D01*
X686Y2144D02*
X696Y2144D01*
X717Y2144D02*
X747Y2144D01*
X405Y2143D02*
X434Y2143D01*
X459Y2143D02*
X467Y2143D01*
X686Y2143D02*
X694Y2143D01*
X718Y2143D02*
X747Y2143D01*
X405Y2142D02*
X433Y2142D01*
X460Y2142D02*
X467Y2142D01*
X686Y2142D02*
X693Y2142D01*
X720Y2142D02*
X747Y2142D01*
X405Y2141D02*
X432Y2141D01*
X461Y2141D02*
X467Y2141D01*
X686Y2141D02*
X692Y2141D01*
X721Y2141D02*
X747Y2141D01*
X405Y2140D02*
X431Y2140D01*
X462Y2140D02*
X467Y2140D01*
X686Y2140D02*
X691Y2140D01*
X722Y2140D02*
X747Y2140D01*
X405Y2139D02*
X430Y2139D01*
X463Y2139D02*
X467Y2139D01*
X686Y2139D02*
X690Y2139D01*
X723Y2139D02*
X747Y2139D01*
X405Y2138D02*
X429Y2138D01*
X464Y2138D02*
X467Y2138D01*
X686Y2138D02*
X689Y2138D01*
X724Y2138D02*
X747Y2138D01*
X405Y2137D02*
X428Y2137D01*
X464Y2137D02*
X467Y2137D01*
X686Y2137D02*
X688Y2137D01*
X724Y2137D02*
X747Y2137D01*
X405Y2136D02*
X428Y2136D01*
X465Y2136D02*
X467Y2136D01*
X686Y2136D02*
X688Y2136D01*
X725Y2136D02*
X747Y2136D01*
X405Y2135D02*
X427Y2135D01*
X466Y2135D02*
X467Y2135D01*
X686Y2135D02*
X687Y2135D01*
X725Y2135D02*
X747Y2135D01*
X405Y2134D02*
X427Y2134D01*
X466Y2134D02*
X467Y2134D01*
X686Y2134D02*
X687Y2134D01*
X726Y2134D02*
X747Y2134D01*
X405Y2133D02*
X427Y2133D01*
X466Y2133D02*
X467Y2133D01*
X686Y2133D02*
X686Y2133D01*
X726Y2133D02*
X747Y2133D01*
X405Y2132D02*
X426Y2132D01*
X467Y2132D02*
X467Y2132D01*
X686Y2132D02*
X686Y2132D01*
X726Y2132D02*
X747Y2132D01*
X405Y2131D02*
X426Y2131D01*
X467Y2131D02*
X467Y2131D01*
X686Y2131D02*
X686Y2131D01*
X727Y2131D02*
X747Y2131D01*
X405Y2130D02*
X426Y2130D01*
X727Y2130D02*
X747Y2130D01*
X405Y2129D02*
X425Y2129D01*
X727Y2129D02*
X747Y2129D01*
X405Y2128D02*
X425Y2128D01*
X727Y2128D02*
X747Y2128D01*
X405Y2127D02*
X425Y2127D01*
X727Y2127D02*
X747Y2127D01*
X405Y2126D02*
X425Y2126D01*
X727Y2126D02*
X747Y2126D01*
X405Y2125D02*
X425Y2125D01*
X727Y2125D02*
X747Y2125D01*
X405Y2124D02*
X425Y2124D01*
X727Y2124D02*
X747Y2124D01*
X405Y2123D02*
X425Y2123D01*
X727Y2123D02*
X747Y2123D01*
X405Y2122D02*
X426Y2122D01*
X727Y2122D02*
X747Y2122D01*
X405Y2121D02*
X426Y2121D01*
X467Y2121D02*
X467Y2121D01*
X686Y2121D02*
X686Y2121D01*
X727Y2121D02*
X747Y2121D01*
X405Y2120D02*
X426Y2120D01*
X467Y2120D02*
X467Y2120D01*
X686Y2120D02*
X686Y2120D01*
X726Y2120D02*
X747Y2120D01*
X405Y2119D02*
X426Y2119D01*
X466Y2119D02*
X467Y2119D01*
X686Y2119D02*
X686Y2119D01*
X726Y2119D02*
X747Y2119D01*
X405Y2118D02*
X427Y2118D01*
X466Y2118D02*
X467Y2118D01*
X686Y2118D02*
X687Y2118D01*
X726Y2118D02*
X747Y2118D01*
X405Y2117D02*
X427Y2117D01*
X466Y2117D02*
X467Y2117D01*
X686Y2117D02*
X687Y2117D01*
X725Y2117D02*
X747Y2117D01*
X405Y2116D02*
X428Y2116D01*
X465Y2116D02*
X467Y2116D01*
X686Y2116D02*
X688Y2116D01*
X725Y2116D02*
X747Y2116D01*
X405Y2115D02*
X428Y2115D01*
X464Y2115D02*
X467Y2115D01*
X686Y2115D02*
X688Y2115D01*
X724Y2115D02*
X747Y2115D01*
X405Y2114D02*
X429Y2114D01*
X464Y2114D02*
X467Y2114D01*
X686Y2114D02*
X689Y2114D01*
X724Y2114D02*
X747Y2114D01*
X405Y2113D02*
X430Y2113D01*
X463Y2113D02*
X467Y2113D01*
X686Y2113D02*
X690Y2113D01*
X723Y2113D02*
X747Y2113D01*
X405Y2112D02*
X431Y2112D01*
X462Y2112D02*
X467Y2112D01*
X686Y2112D02*
X690Y2112D01*
X722Y2112D02*
X747Y2112D01*
X405Y2111D02*
X432Y2111D01*
X461Y2111D02*
X467Y2111D01*
X686Y2111D02*
X691Y2111D01*
X721Y2111D02*
X747Y2111D01*
X405Y2110D02*
X433Y2110D01*
X460Y2110D02*
X467Y2110D01*
X686Y2110D02*
X693Y2110D01*
X720Y2110D02*
X747Y2110D01*
X405Y2109D02*
X434Y2109D01*
X459Y2109D02*
X467Y2109D01*
X686Y2109D02*
X694Y2109D01*
X719Y2109D02*
X747Y2109D01*
X405Y2108D02*
X436Y2108D01*
X457Y2108D02*
X467Y2108D01*
X686Y2108D02*
X695Y2108D01*
X717Y2108D02*
X747Y2108D01*
X405Y2107D02*
X438Y2107D01*
X455Y2107D02*
X467Y2107D01*
X686Y2107D02*
X697Y2107D01*
X715Y2107D02*
X747Y2107D01*
X405Y2106D02*
X441Y2106D01*
X452Y2106D02*
X467Y2106D01*
X686Y2106D02*
X700Y2106D01*
X712Y2106D02*
X747Y2106D01*
X1197Y1871D02*
X1206Y1871D01*
X1192Y1870D02*
X1210Y1870D01*
X1189Y1869D02*
X1213Y1869D01*
X1187Y1868D02*
X1215Y1868D01*
X1185Y1867D02*
X1217Y1867D01*
X1183Y1866D02*
X1219Y1866D01*
X1182Y1865D02*
X1221Y1865D01*
X1180Y1864D02*
X1222Y1864D01*
X1179Y1863D02*
X1223Y1863D01*
X1178Y1862D02*
X1224Y1862D01*
X1177Y1861D02*
X1226Y1861D01*
X1176Y1860D02*
X1226Y1860D01*
X1175Y1859D02*
X1227Y1859D01*
X1174Y1858D02*
X1228Y1858D01*
X1173Y1857D02*
X1229Y1857D01*
X1173Y1856D02*
X1230Y1856D01*
X1172Y1855D02*
X1230Y1855D01*
X1172Y1854D02*
X1231Y1854D01*
X1171Y1853D02*
X1231Y1853D01*
X1171Y1852D02*
X1232Y1852D01*
X1170Y1851D02*
X1197Y1851D01*
X1206Y1851D02*
X1232Y1851D01*
X1170Y1850D02*
X1194Y1850D01*
X1208Y1850D02*
X1233Y1850D01*
X1169Y1849D02*
X1192Y1849D01*
X1210Y1849D02*
X1233Y1849D01*
X1169Y1848D02*
X1191Y1848D01*
X1211Y1848D02*
X1233Y1848D01*
X1168Y1847D02*
X1190Y1847D01*
X1212Y1847D02*
X1234Y1847D01*
X1168Y1846D02*
X1189Y1846D01*
X1213Y1846D02*
X1234Y1846D01*
X1168Y1845D02*
X1188Y1845D01*
X1214Y1845D02*
X1234Y1845D01*
X1168Y1844D02*
X1188Y1844D01*
X1215Y1844D02*
X1235Y1844D01*
X1167Y1843D02*
X1187Y1843D01*
X1215Y1843D02*
X1235Y1843D01*
X1167Y1842D02*
X1187Y1842D01*
X1216Y1842D02*
X1235Y1842D01*
X1167Y1841D02*
X1186Y1841D01*
X1216Y1841D02*
X1235Y1841D01*
X1167Y1840D02*
X1186Y1840D01*
X1216Y1840D02*
X1235Y1840D01*
X1167Y1839D02*
X1186Y1839D01*
X1216Y1839D02*
X1235Y1839D01*
X1167Y1838D02*
X1186Y1838D01*
X1217Y1838D02*
X1236Y1838D01*
X1167Y1837D02*
X1186Y1837D01*
X1217Y1837D02*
X1236Y1837D01*
X1167Y1836D02*
X1186Y1836D01*
X1217Y1836D02*
X1236Y1836D01*
X1167Y1835D02*
X1186Y1835D01*
X1217Y1835D02*
X1236Y1835D01*
X1167Y1834D02*
X1186Y1834D01*
X1216Y1834D02*
X1235Y1834D01*
X1167Y1833D02*
X1186Y1833D01*
X1216Y1833D02*
X1235Y1833D01*
X1167Y1832D02*
X1186Y1832D01*
X1216Y1832D02*
X1235Y1832D01*
X1167Y1831D02*
X1187Y1831D01*
X1216Y1831D02*
X1235Y1831D01*
X1167Y1830D02*
X1187Y1830D01*
X1215Y1830D02*
X1235Y1830D01*
X1168Y1829D02*
X1188Y1829D01*
X1215Y1829D02*
X1235Y1829D01*
X1168Y1828D02*
X1188Y1828D01*
X1214Y1828D02*
X1234Y1828D01*
X1168Y1827D02*
X1189Y1827D01*
X1213Y1827D02*
X1234Y1827D01*
X1168Y1826D02*
X1190Y1826D01*
X1212Y1826D02*
X1234Y1826D01*
X1169Y1825D02*
X1191Y1825D01*
X1211Y1825D02*
X1233Y1825D01*
X1169Y1824D02*
X1192Y1824D01*
X1210Y1824D02*
X1233Y1824D01*
X1170Y1823D02*
X1194Y1823D01*
X1209Y1823D02*
X1233Y1823D01*
X1170Y1822D02*
X1196Y1822D01*
X1206Y1822D02*
X1232Y1822D01*
X1170Y1821D02*
X1232Y1821D01*
X1171Y1820D02*
X1231Y1820D01*
X1172Y1819D02*
X1231Y1819D01*
X1172Y1818D02*
X1230Y1818D01*
X1173Y1817D02*
X1230Y1817D01*
X1173Y1816D02*
X1229Y1816D01*
X1174Y1815D02*
X1228Y1815D01*
X1175Y1814D02*
X1227Y1814D01*
X1176Y1813D02*
X1227Y1813D01*
X1177Y1812D02*
X1226Y1812D01*
X1178Y1811D02*
X1225Y1811D01*
X1179Y1810D02*
X1223Y1810D01*
X1180Y1809D02*
X1222Y1809D01*
X1181Y1808D02*
X1221Y1808D01*
X1183Y1807D02*
X1219Y1807D01*
X1185Y1806D02*
X1218Y1806D01*
X1187Y1805D02*
X1216Y1805D01*
X1189Y1804D02*
X1213Y1804D01*
X1192Y1803D02*
X1210Y1803D01*
X1196Y1802D02*
X1206Y1802D01*
X1197Y1771D02*
X1206Y1771D01*
X1192Y1770D02*
X1210Y1770D01*
X1189Y1769D02*
X1213Y1769D01*
X1187Y1768D02*
X1215Y1768D01*
X1185Y1767D02*
X1217Y1767D01*
X1183Y1766D02*
X1219Y1766D01*
X1182Y1765D02*
X1221Y1765D01*
X1180Y1764D02*
X1222Y1764D01*
X1179Y1763D02*
X1223Y1763D01*
X1178Y1762D02*
X1225Y1762D01*
X1177Y1761D02*
X1226Y1761D01*
X1176Y1760D02*
X1226Y1760D01*
X1175Y1759D02*
X1227Y1759D01*
X1174Y1758D02*
X1228Y1758D01*
X1173Y1757D02*
X1229Y1757D01*
X1173Y1756D02*
X1230Y1756D01*
X1172Y1755D02*
X1230Y1755D01*
X1172Y1754D02*
X1231Y1754D01*
X1171Y1753D02*
X1231Y1753D01*
X1171Y1752D02*
X1232Y1752D01*
X1170Y1751D02*
X1197Y1751D01*
X1206Y1751D02*
X1232Y1751D01*
X1170Y1750D02*
X1194Y1750D01*
X1208Y1750D02*
X1233Y1750D01*
X1169Y1749D02*
X1192Y1749D01*
X1210Y1749D02*
X1233Y1749D01*
X1169Y1748D02*
X1191Y1748D01*
X1211Y1748D02*
X1233Y1748D01*
X1168Y1747D02*
X1190Y1747D01*
X1212Y1747D02*
X1234Y1747D01*
X1168Y1746D02*
X1189Y1746D01*
X1213Y1746D02*
X1234Y1746D01*
X1168Y1745D02*
X1188Y1745D01*
X1214Y1745D02*
X1234Y1745D01*
X1168Y1744D02*
X1188Y1744D01*
X1215Y1744D02*
X1235Y1744D01*
X1167Y1743D02*
X1187Y1743D01*
X1215Y1743D02*
X1235Y1743D01*
X1167Y1742D02*
X1187Y1742D01*
X1216Y1742D02*
X1235Y1742D01*
X1167Y1741D02*
X1186Y1741D01*
X1216Y1741D02*
X1235Y1741D01*
X1167Y1740D02*
X1186Y1740D01*
X1216Y1740D02*
X1235Y1740D01*
X1167Y1739D02*
X1186Y1739D01*
X1216Y1739D02*
X1235Y1739D01*
X1167Y1738D02*
X1186Y1738D01*
X1217Y1738D02*
X1236Y1738D01*
X1167Y1737D02*
X1186Y1737D01*
X1217Y1737D02*
X1236Y1737D01*
X1167Y1736D02*
X1186Y1736D01*
X1217Y1736D02*
X1236Y1736D01*
X1167Y1735D02*
X1186Y1735D01*
X1217Y1735D02*
X1236Y1735D01*
X1167Y1734D02*
X1186Y1734D01*
X1216Y1734D02*
X1235Y1734D01*
X1167Y1733D02*
X1186Y1733D01*
X1216Y1733D02*
X1235Y1733D01*
X1167Y1732D02*
X1186Y1732D01*
X1216Y1732D02*
X1235Y1732D01*
X1167Y1731D02*
X1187Y1731D01*
X1216Y1731D02*
X1235Y1731D01*
X1167Y1730D02*
X1187Y1730D01*
X1215Y1730D02*
X1235Y1730D01*
X1168Y1729D02*
X1188Y1729D01*
X1215Y1729D02*
X1235Y1729D01*
X1168Y1728D02*
X1188Y1728D01*
X1214Y1728D02*
X1234Y1728D01*
X1168Y1727D02*
X1189Y1727D01*
X1213Y1727D02*
X1234Y1727D01*
X1168Y1726D02*
X1190Y1726D01*
X1212Y1726D02*
X1234Y1726D01*
X1169Y1725D02*
X1191Y1725D01*
X1211Y1725D02*
X1233Y1725D01*
X1169Y1724D02*
X1192Y1724D01*
X1210Y1724D02*
X1233Y1724D01*
X1170Y1723D02*
X1194Y1723D01*
X1208Y1723D02*
X1233Y1723D01*
X1170Y1722D02*
X1196Y1722D01*
X1206Y1722D02*
X1232Y1722D01*
X1170Y1721D02*
X1232Y1721D01*
X1171Y1720D02*
X1231Y1720D01*
X1172Y1719D02*
X1231Y1719D01*
X1172Y1718D02*
X1230Y1718D01*
X1173Y1717D02*
X1230Y1717D01*
X1173Y1716D02*
X1229Y1716D01*
X1174Y1715D02*
X1228Y1715D01*
X1175Y1714D02*
X1227Y1714D01*
X1176Y1713D02*
X1227Y1713D01*
X1177Y1712D02*
X1226Y1712D01*
X1178Y1711D02*
X1225Y1711D01*
X1179Y1710D02*
X1223Y1710D01*
X1180Y1709D02*
X1222Y1709D01*
X1182Y1708D02*
X1221Y1708D01*
X1183Y1707D02*
X1219Y1707D01*
X1185Y1706D02*
X1218Y1706D01*
X1187Y1705D02*
X1215Y1705D01*
X1189Y1704D02*
X1213Y1704D01*
X1192Y1703D02*
X1210Y1703D01*
X1196Y1702D02*
X1206Y1702D01*
X1197Y1671D02*
X1206Y1671D01*
X1192Y1670D02*
X1210Y1670D01*
X1189Y1669D02*
X1213Y1669D01*
X1187Y1668D02*
X1215Y1668D01*
X1185Y1667D02*
X1217Y1667D01*
X1183Y1666D02*
X1219Y1666D01*
X1182Y1665D02*
X1221Y1665D01*
X1180Y1664D02*
X1222Y1664D01*
X1179Y1663D02*
X1223Y1663D01*
X1178Y1662D02*
X1225Y1662D01*
X1177Y1661D02*
X1226Y1661D01*
X1176Y1660D02*
X1226Y1660D01*
X1175Y1659D02*
X1227Y1659D01*
X1174Y1658D02*
X1228Y1658D01*
X1173Y1657D02*
X1229Y1657D01*
X1173Y1656D02*
X1230Y1656D01*
X1172Y1655D02*
X1230Y1655D01*
X1172Y1654D02*
X1231Y1654D01*
X1171Y1653D02*
X1231Y1653D01*
X1171Y1652D02*
X1232Y1652D01*
X1170Y1651D02*
X1197Y1651D01*
X1206Y1651D02*
X1232Y1651D01*
X1170Y1650D02*
X1194Y1650D01*
X1208Y1650D02*
X1233Y1650D01*
X1169Y1649D02*
X1192Y1649D01*
X1210Y1649D02*
X1233Y1649D01*
X1169Y1648D02*
X1191Y1648D01*
X1211Y1648D02*
X1233Y1648D01*
X1168Y1647D02*
X1190Y1647D01*
X1212Y1647D02*
X1234Y1647D01*
X1168Y1646D02*
X1189Y1646D01*
X1213Y1646D02*
X1234Y1646D01*
X1168Y1645D02*
X1188Y1645D01*
X1214Y1645D02*
X1234Y1645D01*
X1168Y1644D02*
X1188Y1644D01*
X1215Y1644D02*
X1235Y1644D01*
X1167Y1643D02*
X1187Y1643D01*
X1215Y1643D02*
X1235Y1643D01*
X1167Y1642D02*
X1187Y1642D01*
X1216Y1642D02*
X1235Y1642D01*
X1167Y1641D02*
X1186Y1641D01*
X1216Y1641D02*
X1235Y1641D01*
X1167Y1640D02*
X1186Y1640D01*
X1216Y1640D02*
X1235Y1640D01*
X1167Y1639D02*
X1186Y1639D01*
X1216Y1639D02*
X1235Y1639D01*
X1167Y1638D02*
X1186Y1638D01*
X1217Y1638D02*
X1236Y1638D01*
X1167Y1637D02*
X1186Y1637D01*
X1217Y1637D02*
X1236Y1637D01*
X1167Y1636D02*
X1186Y1636D01*
X1217Y1636D02*
X1236Y1636D01*
X1167Y1635D02*
X1186Y1635D01*
X1217Y1635D02*
X1236Y1635D01*
X1167Y1634D02*
X1186Y1634D01*
X1216Y1634D02*
X1235Y1634D01*
X1167Y1633D02*
X1186Y1633D01*
X1216Y1633D02*
X1235Y1633D01*
X1167Y1632D02*
X1186Y1632D01*
X1216Y1632D02*
X1235Y1632D01*
X1167Y1631D02*
X1187Y1631D01*
X1216Y1631D02*
X1235Y1631D01*
X1167Y1630D02*
X1187Y1630D01*
X1215Y1630D02*
X1235Y1630D01*
X1168Y1629D02*
X1188Y1629D01*
X1215Y1629D02*
X1235Y1629D01*
X1168Y1628D02*
X1188Y1628D01*
X1214Y1628D02*
X1234Y1628D01*
X1168Y1627D02*
X1189Y1627D01*
X1213Y1627D02*
X1234Y1627D01*
X1168Y1626D02*
X1190Y1626D01*
X1212Y1626D02*
X1234Y1626D01*
X1169Y1625D02*
X1191Y1625D01*
X1211Y1625D02*
X1233Y1625D01*
X1169Y1624D02*
X1192Y1624D01*
X1210Y1624D02*
X1233Y1624D01*
X1170Y1623D02*
X1194Y1623D01*
X1208Y1623D02*
X1233Y1623D01*
X1170Y1622D02*
X1197Y1622D01*
X1206Y1622D02*
X1232Y1622D01*
X1171Y1621D02*
X1232Y1621D01*
X1171Y1620D02*
X1231Y1620D01*
X1172Y1619D02*
X1231Y1619D01*
X1172Y1618D02*
X1230Y1618D01*
X1173Y1617D02*
X1230Y1617D01*
X1173Y1616D02*
X1229Y1616D01*
X1174Y1615D02*
X1228Y1615D01*
X1175Y1614D02*
X1227Y1614D01*
X1176Y1613D02*
X1227Y1613D01*
X1177Y1612D02*
X1226Y1612D01*
X1178Y1611D02*
X1225Y1611D01*
X1179Y1610D02*
X1223Y1610D01*
X1180Y1609D02*
X1222Y1609D01*
X1182Y1608D02*
X1221Y1608D01*
X1183Y1607D02*
X1219Y1607D01*
X1185Y1606D02*
X1217Y1606D01*
X1187Y1605D02*
X1215Y1605D01*
X1189Y1604D02*
X1213Y1604D01*
X1192Y1603D02*
X1210Y1603D01*
X1196Y1602D02*
X1206Y1602D01*
X1196Y1571D02*
X1206Y1571D01*
X1192Y1570D02*
X1210Y1570D01*
X1189Y1569D02*
X1213Y1569D01*
X1187Y1568D02*
X1215Y1568D01*
X1185Y1567D02*
X1217Y1567D01*
X1183Y1566D02*
X1219Y1566D01*
X1182Y1565D02*
X1221Y1565D01*
X1180Y1564D02*
X1222Y1564D01*
X1179Y1563D02*
X1223Y1563D01*
X1178Y1562D02*
X1225Y1562D01*
X1177Y1561D02*
X1226Y1561D01*
X1176Y1560D02*
X1227Y1560D01*
X1175Y1559D02*
X1227Y1559D01*
X1174Y1558D02*
X1228Y1558D01*
X1173Y1557D02*
X1229Y1557D01*
X1173Y1556D02*
X1230Y1556D01*
X1172Y1555D02*
X1230Y1555D01*
X1172Y1554D02*
X1231Y1554D01*
X1171Y1553D02*
X1231Y1553D01*
X1171Y1552D02*
X1232Y1552D01*
X1170Y1551D02*
X1196Y1551D01*
X1206Y1551D02*
X1232Y1551D01*
X1170Y1550D02*
X1194Y1550D01*
X1208Y1550D02*
X1233Y1550D01*
X1169Y1549D02*
X1192Y1549D01*
X1210Y1549D02*
X1233Y1549D01*
X1169Y1548D02*
X1191Y1548D01*
X1211Y1548D02*
X1233Y1548D01*
X1168Y1547D02*
X1190Y1547D01*
X1212Y1547D02*
X1234Y1547D01*
X1168Y1546D02*
X1189Y1546D01*
X1213Y1546D02*
X1234Y1546D01*
X1168Y1545D02*
X1188Y1545D01*
X1214Y1545D02*
X1234Y1545D01*
X1168Y1544D02*
X1188Y1544D01*
X1215Y1544D02*
X1235Y1544D01*
X1167Y1543D02*
X1187Y1543D01*
X1215Y1543D02*
X1235Y1543D01*
X1167Y1542D02*
X1187Y1542D01*
X1216Y1542D02*
X1235Y1542D01*
X1167Y1541D02*
X1186Y1541D01*
X1216Y1541D02*
X1235Y1541D01*
X1167Y1540D02*
X1186Y1540D01*
X1216Y1540D02*
X1235Y1540D01*
X1167Y1539D02*
X1186Y1539D01*
X1216Y1539D02*
X1235Y1539D01*
X1167Y1538D02*
X1186Y1538D01*
X1217Y1538D02*
X1236Y1538D01*
X1167Y1537D02*
X1186Y1537D01*
X1217Y1537D02*
X1236Y1537D01*
X1167Y1536D02*
X1186Y1536D01*
X1217Y1536D02*
X1236Y1536D01*
X1167Y1535D02*
X1186Y1535D01*
X1217Y1535D02*
X1236Y1535D01*
X1167Y1534D02*
X1186Y1534D01*
X1216Y1534D02*
X1235Y1534D01*
X1167Y1533D02*
X1186Y1533D01*
X1216Y1533D02*
X1235Y1533D01*
X1167Y1532D02*
X1186Y1532D01*
X1216Y1532D02*
X1235Y1532D01*
X1167Y1531D02*
X1187Y1531D01*
X1216Y1531D02*
X1235Y1531D01*
X1167Y1530D02*
X1187Y1530D01*
X1215Y1530D02*
X1235Y1530D01*
X1168Y1529D02*
X1188Y1529D01*
X1215Y1529D02*
X1235Y1529D01*
X1168Y1528D02*
X1188Y1528D01*
X1214Y1528D02*
X1234Y1528D01*
X1168Y1527D02*
X1189Y1527D01*
X1213Y1527D02*
X1234Y1527D01*
X1168Y1526D02*
X1190Y1526D01*
X1212Y1526D02*
X1234Y1526D01*
X1169Y1525D02*
X1191Y1525D01*
X1211Y1525D02*
X1233Y1525D01*
X1169Y1524D02*
X1192Y1524D01*
X1210Y1524D02*
X1233Y1524D01*
X1170Y1523D02*
X1194Y1523D01*
X1208Y1523D02*
X1233Y1523D01*
X1170Y1522D02*
X1197Y1522D01*
X1206Y1522D02*
X1232Y1522D01*
X1171Y1521D02*
X1232Y1521D01*
X1171Y1520D02*
X1231Y1520D01*
X1172Y1519D02*
X1231Y1519D01*
X1172Y1518D02*
X1230Y1518D01*
X1173Y1517D02*
X1230Y1517D01*
X1173Y1516D02*
X1229Y1516D01*
X1174Y1515D02*
X1228Y1515D01*
X1175Y1514D02*
X1227Y1514D01*
X1176Y1513D02*
X1226Y1513D01*
X1177Y1512D02*
X1226Y1512D01*
X1178Y1511D02*
X1225Y1511D01*
X1179Y1510D02*
X1223Y1510D01*
X1180Y1509D02*
X1222Y1509D01*
X1182Y1508D02*
X1221Y1508D01*
X1183Y1507D02*
X1219Y1507D01*
X1185Y1506D02*
X1217Y1506D01*
X1187Y1505D02*
X1215Y1505D01*
X1189Y1504D02*
X1213Y1504D01*
X1192Y1503D02*
X1210Y1503D01*
X1197Y1502D02*
X1206Y1502D01*
X1196Y1471D02*
X1206Y1471D01*
X1192Y1470D02*
X1210Y1470D01*
X1189Y1469D02*
X1213Y1469D01*
X1187Y1468D02*
X1215Y1468D01*
X1185Y1467D02*
X1218Y1467D01*
X1183Y1466D02*
X1219Y1466D01*
X1181Y1465D02*
X1221Y1465D01*
X1180Y1464D02*
X1222Y1464D01*
X1179Y1463D02*
X1223Y1463D01*
X1178Y1462D02*
X1225Y1462D01*
X1177Y1461D02*
X1226Y1461D01*
X1176Y1460D02*
X1227Y1460D01*
X1175Y1459D02*
X1227Y1459D01*
X1174Y1458D02*
X1228Y1458D01*
X1173Y1457D02*
X1229Y1457D01*
X1173Y1456D02*
X1230Y1456D01*
X1172Y1455D02*
X1230Y1455D01*
X1172Y1454D02*
X1231Y1454D01*
X1171Y1453D02*
X1231Y1453D01*
X1170Y1452D02*
X1232Y1452D01*
X1170Y1451D02*
X1196Y1451D01*
X1206Y1451D02*
X1232Y1451D01*
X1170Y1450D02*
X1194Y1450D01*
X1209Y1450D02*
X1233Y1450D01*
X1169Y1449D02*
X1192Y1449D01*
X1210Y1449D02*
X1233Y1449D01*
X1169Y1448D02*
X1191Y1448D01*
X1211Y1448D02*
X1233Y1448D01*
X1168Y1447D02*
X1190Y1447D01*
X1212Y1447D02*
X1234Y1447D01*
X1168Y1446D02*
X1189Y1446D01*
X1213Y1446D02*
X1234Y1446D01*
X1168Y1445D02*
X1188Y1445D01*
X1214Y1445D02*
X1234Y1445D01*
X1168Y1444D02*
X1188Y1444D01*
X1215Y1444D02*
X1235Y1444D01*
X1167Y1443D02*
X1187Y1443D01*
X1215Y1443D02*
X1235Y1443D01*
X1167Y1442D02*
X1187Y1442D01*
X1216Y1442D02*
X1235Y1442D01*
X1167Y1441D02*
X1186Y1441D01*
X1216Y1441D02*
X1235Y1441D01*
X1167Y1440D02*
X1186Y1440D01*
X1216Y1440D02*
X1235Y1440D01*
X1167Y1439D02*
X1186Y1439D01*
X1216Y1439D02*
X1235Y1439D01*
X1167Y1438D02*
X1186Y1438D01*
X1217Y1438D02*
X1236Y1438D01*
X1167Y1437D02*
X1186Y1437D01*
X1217Y1437D02*
X1236Y1437D01*
X1167Y1436D02*
X1186Y1436D01*
X1217Y1436D02*
X1236Y1436D01*
X1167Y1435D02*
X1186Y1435D01*
X1217Y1435D02*
X1236Y1435D01*
X1167Y1434D02*
X1186Y1434D01*
X1216Y1434D02*
X1235Y1434D01*
X1167Y1433D02*
X1186Y1433D01*
X1216Y1433D02*
X1235Y1433D01*
X1167Y1432D02*
X1186Y1432D01*
X1216Y1432D02*
X1235Y1432D01*
X1167Y1431D02*
X1187Y1431D01*
X1216Y1431D02*
X1235Y1431D01*
X1167Y1430D02*
X1187Y1430D01*
X1215Y1430D02*
X1235Y1430D01*
X1168Y1429D02*
X1188Y1429D01*
X1215Y1429D02*
X1235Y1429D01*
X1168Y1428D02*
X1188Y1428D01*
X1214Y1428D02*
X1234Y1428D01*
X1168Y1427D02*
X1189Y1427D01*
X1213Y1427D02*
X1234Y1427D01*
X1168Y1426D02*
X1190Y1426D01*
X1212Y1426D02*
X1234Y1426D01*
X1169Y1425D02*
X1191Y1425D01*
X1211Y1425D02*
X1233Y1425D01*
X1169Y1424D02*
X1192Y1424D01*
X1210Y1424D02*
X1233Y1424D01*
X1170Y1423D02*
X1194Y1423D01*
X1208Y1423D02*
X1233Y1423D01*
X1170Y1422D02*
X1197Y1422D01*
X1206Y1422D02*
X1232Y1422D01*
X1171Y1421D02*
X1232Y1421D01*
X1171Y1420D02*
X1231Y1420D01*
X1172Y1419D02*
X1231Y1419D01*
X1172Y1418D02*
X1230Y1418D01*
X1173Y1417D02*
X1230Y1417D01*
X1173Y1416D02*
X1229Y1416D01*
X1174Y1415D02*
X1228Y1415D01*
X1175Y1414D02*
X1227Y1414D01*
X1176Y1413D02*
X1226Y1413D01*
X1177Y1412D02*
X1226Y1412D01*
X1178Y1411D02*
X1224Y1411D01*
X1179Y1410D02*
X1223Y1410D01*
X1180Y1409D02*
X1222Y1409D01*
X1182Y1408D02*
X1221Y1408D01*
X1183Y1407D02*
X1219Y1407D01*
X1185Y1406D02*
X1217Y1406D01*
X1187Y1405D02*
X1215Y1405D01*
X1189Y1404D02*
X1213Y1404D01*
X1192Y1403D02*
X1210Y1403D01*
X1197Y1402D02*
X1205Y1402D01*
X1196Y1371D02*
X1206Y1371D01*
X1192Y1370D02*
X1210Y1370D01*
X1189Y1369D02*
X1213Y1369D01*
X1187Y1368D02*
X1216Y1368D01*
X1185Y1367D02*
X1218Y1367D01*
X1183Y1366D02*
X1219Y1366D01*
X1181Y1365D02*
X1221Y1365D01*
X1180Y1364D02*
X1222Y1364D01*
X1179Y1363D02*
X1224Y1363D01*
X1178Y1362D02*
X1225Y1362D01*
X1177Y1361D02*
X1226Y1361D01*
X1176Y1360D02*
X1227Y1360D01*
X1175Y1359D02*
X1227Y1359D01*
X1174Y1358D02*
X1228Y1358D01*
X1173Y1357D02*
X1229Y1357D01*
X1173Y1356D02*
X1230Y1356D01*
X1172Y1355D02*
X1230Y1355D01*
X1172Y1354D02*
X1231Y1354D01*
X1171Y1353D02*
X1231Y1353D01*
X1170Y1352D02*
X1232Y1352D01*
X1170Y1351D02*
X1196Y1351D01*
X1206Y1351D02*
X1232Y1351D01*
X1170Y1350D02*
X1194Y1350D01*
X1209Y1350D02*
X1233Y1350D01*
X1169Y1349D02*
X1192Y1349D01*
X1210Y1349D02*
X1233Y1349D01*
X1169Y1348D02*
X1191Y1348D01*
X1211Y1348D02*
X1234Y1348D01*
X1168Y1347D02*
X1190Y1347D01*
X1212Y1347D02*
X1234Y1347D01*
X1168Y1346D02*
X1189Y1346D01*
X1213Y1346D02*
X1234Y1346D01*
X1168Y1345D02*
X1188Y1345D01*
X1214Y1345D02*
X1234Y1345D01*
X1168Y1344D02*
X1188Y1344D01*
X1215Y1344D02*
X1235Y1344D01*
X1167Y1343D02*
X1187Y1343D01*
X1215Y1343D02*
X1235Y1343D01*
X1167Y1342D02*
X1187Y1342D01*
X1216Y1342D02*
X1235Y1342D01*
X1167Y1341D02*
X1186Y1341D01*
X1216Y1341D02*
X1235Y1341D01*
X1167Y1340D02*
X1186Y1340D01*
X1216Y1340D02*
X1235Y1340D01*
X1167Y1339D02*
X1186Y1339D01*
X1216Y1339D02*
X1235Y1339D01*
X1167Y1338D02*
X1186Y1338D01*
X1217Y1338D02*
X1236Y1338D01*
X1167Y1337D02*
X1186Y1337D01*
X1217Y1337D02*
X1236Y1337D01*
X1167Y1336D02*
X1186Y1336D01*
X1217Y1336D02*
X1236Y1336D01*
X1167Y1335D02*
X1186Y1335D01*
X1217Y1335D02*
X1236Y1335D01*
X1167Y1334D02*
X1186Y1334D01*
X1216Y1334D02*
X1235Y1334D01*
X1167Y1333D02*
X1186Y1333D01*
X1216Y1333D02*
X1235Y1333D01*
X1167Y1332D02*
X1186Y1332D01*
X1216Y1332D02*
X1235Y1332D01*
X1167Y1331D02*
X1187Y1331D01*
X1216Y1331D02*
X1235Y1331D01*
X1167Y1330D02*
X1187Y1330D01*
X1215Y1330D02*
X1235Y1330D01*
X1168Y1329D02*
X1188Y1329D01*
X1215Y1329D02*
X1235Y1329D01*
X1168Y1328D02*
X1188Y1328D01*
X1214Y1328D02*
X1234Y1328D01*
X1168Y1327D02*
X1189Y1327D01*
X1213Y1327D02*
X1234Y1327D01*
X1168Y1326D02*
X1190Y1326D01*
X1212Y1326D02*
X1234Y1326D01*
X1169Y1325D02*
X1191Y1325D01*
X1211Y1325D02*
X1233Y1325D01*
X1169Y1324D02*
X1192Y1324D01*
X1210Y1324D02*
X1233Y1324D01*
X1170Y1323D02*
X1194Y1323D01*
X1208Y1323D02*
X1233Y1323D01*
X1170Y1322D02*
X1197Y1322D01*
X1206Y1322D02*
X1232Y1322D01*
X1171Y1321D02*
X1232Y1321D01*
X1171Y1320D02*
X1231Y1320D01*
X1172Y1319D02*
X1231Y1319D01*
X1172Y1318D02*
X1230Y1318D01*
X1173Y1317D02*
X1230Y1317D01*
X1173Y1316D02*
X1229Y1316D01*
X1174Y1315D02*
X1228Y1315D01*
X1175Y1314D02*
X1227Y1314D01*
X1176Y1313D02*
X1226Y1313D01*
X1177Y1312D02*
X1226Y1312D01*
X1178Y1311D02*
X1224Y1311D01*
X1179Y1310D02*
X1223Y1310D01*
X1180Y1309D02*
X1222Y1309D01*
X1182Y1308D02*
X1221Y1308D01*
X1183Y1307D02*
X1219Y1307D01*
X1185Y1306D02*
X1217Y1306D01*
X1187Y1305D02*
X1215Y1305D01*
X1189Y1304D02*
X1213Y1304D01*
X1192Y1303D02*
X1210Y1303D01*
X1197Y1302D02*
X1205Y1302D01*
X1196Y1271D02*
X1206Y1271D01*
X1192Y1270D02*
X1211Y1270D01*
X1189Y1269D02*
X1213Y1269D01*
X1187Y1268D02*
X1216Y1268D01*
X1185Y1267D02*
X1218Y1267D01*
X1183Y1266D02*
X1219Y1266D01*
X1181Y1265D02*
X1221Y1265D01*
X1180Y1264D02*
X1222Y1264D01*
X1179Y1263D02*
X1224Y1263D01*
X1178Y1262D02*
X1225Y1262D01*
X1177Y1261D02*
X1226Y1261D01*
X1176Y1260D02*
X1227Y1260D01*
X1175Y1259D02*
X1227Y1259D01*
X1174Y1258D02*
X1228Y1258D01*
X1173Y1257D02*
X1229Y1257D01*
X1173Y1256D02*
X1230Y1256D01*
X1172Y1255D02*
X1230Y1255D01*
X1171Y1254D02*
X1231Y1254D01*
X1171Y1253D02*
X1231Y1253D01*
X1170Y1252D02*
X1232Y1252D01*
X1170Y1251D02*
X1196Y1251D01*
X1206Y1251D02*
X1232Y1251D01*
X1170Y1250D02*
X1194Y1250D01*
X1209Y1250D02*
X1233Y1250D01*
X1169Y1249D02*
X1192Y1249D01*
X1210Y1249D02*
X1233Y1249D01*
X1169Y1248D02*
X1191Y1248D01*
X1211Y1248D02*
X1234Y1248D01*
X1168Y1247D02*
X1190Y1247D01*
X1212Y1247D02*
X1234Y1247D01*
X1168Y1246D02*
X1189Y1246D01*
X1213Y1246D02*
X1234Y1246D01*
X1168Y1245D02*
X1188Y1245D01*
X1214Y1245D02*
X1234Y1245D01*
X1168Y1244D02*
X1188Y1244D01*
X1215Y1244D02*
X1235Y1244D01*
X1167Y1243D02*
X1187Y1243D01*
X1215Y1243D02*
X1235Y1243D01*
X1167Y1242D02*
X1187Y1242D01*
X1216Y1242D02*
X1235Y1242D01*
X1167Y1241D02*
X1186Y1241D01*
X1216Y1241D02*
X1235Y1241D01*
X1167Y1240D02*
X1186Y1240D01*
X1216Y1240D02*
X1235Y1240D01*
X1167Y1239D02*
X1186Y1239D01*
X1216Y1239D02*
X1235Y1239D01*
X1167Y1238D02*
X1186Y1238D01*
X1217Y1238D02*
X1236Y1238D01*
X1167Y1237D02*
X1186Y1237D01*
X1217Y1237D02*
X1236Y1237D01*
X1167Y1236D02*
X1186Y1236D01*
X1217Y1236D02*
X1236Y1236D01*
X1167Y1235D02*
X1186Y1235D01*
X1217Y1235D02*
X1236Y1235D01*
X1167Y1234D02*
X1186Y1234D01*
X1216Y1234D02*
X1235Y1234D01*
X1167Y1233D02*
X1186Y1233D01*
X1216Y1233D02*
X1235Y1233D01*
X1167Y1232D02*
X1186Y1232D01*
X1216Y1232D02*
X1235Y1232D01*
X1167Y1231D02*
X1187Y1231D01*
X1216Y1231D02*
X1235Y1231D01*
X1167Y1230D02*
X1187Y1230D01*
X1215Y1230D02*
X1235Y1230D01*
X1168Y1229D02*
X1188Y1229D01*
X1215Y1229D02*
X1235Y1229D01*
X1168Y1228D02*
X1188Y1228D01*
X1214Y1228D02*
X1234Y1228D01*
X1168Y1227D02*
X1189Y1227D01*
X1213Y1227D02*
X1234Y1227D01*
X1168Y1226D02*
X1190Y1226D01*
X1212Y1226D02*
X1234Y1226D01*
X1169Y1225D02*
X1191Y1225D01*
X1211Y1225D02*
X1233Y1225D01*
X1169Y1224D02*
X1192Y1224D01*
X1210Y1224D02*
X1233Y1224D01*
X1170Y1223D02*
X1194Y1223D01*
X1208Y1223D02*
X1233Y1223D01*
X1170Y1222D02*
X1197Y1222D01*
X1205Y1222D02*
X1232Y1222D01*
X1171Y1221D02*
X1232Y1221D01*
X1171Y1220D02*
X1231Y1220D01*
X1172Y1219D02*
X1231Y1219D01*
X1172Y1218D02*
X1230Y1218D01*
X1173Y1217D02*
X1230Y1217D01*
X1173Y1216D02*
X1229Y1216D01*
X1174Y1215D02*
X1228Y1215D01*
X1175Y1214D02*
X1227Y1214D01*
X1176Y1213D02*
X1226Y1213D01*
X1177Y1212D02*
X1226Y1212D01*
X1178Y1211D02*
X1224Y1211D01*
X1179Y1210D02*
X1223Y1210D01*
X1180Y1209D02*
X1222Y1209D01*
X1182Y1208D02*
X1221Y1208D01*
X1183Y1207D02*
X1219Y1207D01*
X1185Y1206D02*
X1217Y1206D01*
X1187Y1205D02*
X1215Y1205D01*
X1190Y1204D02*
X1213Y1204D01*
X1193Y1203D02*
X1210Y1203D01*
X1197Y1202D02*
X1205Y1202D01*
X1196Y1171D02*
X1206Y1171D01*
X1192Y1170D02*
X1210Y1170D01*
X1189Y1169D02*
X1213Y1169D01*
X1187Y1168D02*
X1215Y1168D01*
X1185Y1167D02*
X1218Y1167D01*
X1183Y1166D02*
X1219Y1166D01*
X1181Y1165D02*
X1221Y1165D01*
X1180Y1164D02*
X1222Y1164D01*
X1179Y1163D02*
X1223Y1163D01*
X1178Y1162D02*
X1225Y1162D01*
X1177Y1161D02*
X1226Y1161D01*
X1176Y1160D02*
X1227Y1160D01*
X1175Y1159D02*
X1227Y1159D01*
X1174Y1158D02*
X1228Y1158D01*
X1173Y1157D02*
X1229Y1157D01*
X1173Y1156D02*
X1230Y1156D01*
X1172Y1155D02*
X1230Y1155D01*
X1172Y1154D02*
X1231Y1154D01*
X1171Y1153D02*
X1231Y1153D01*
X1170Y1152D02*
X1232Y1152D01*
X1170Y1151D02*
X1196Y1151D01*
X1206Y1151D02*
X1232Y1151D01*
X1170Y1150D02*
X1194Y1150D01*
X1208Y1150D02*
X1233Y1150D01*
X1169Y1149D02*
X1192Y1149D01*
X1210Y1149D02*
X1233Y1149D01*
X1169Y1148D02*
X1191Y1148D01*
X1211Y1148D02*
X1233Y1148D01*
X1168Y1147D02*
X1190Y1147D01*
X1212Y1147D02*
X1234Y1147D01*
X1168Y1146D02*
X1189Y1146D01*
X1213Y1146D02*
X1234Y1146D01*
X1168Y1145D02*
X1188Y1145D01*
X1214Y1145D02*
X1234Y1145D01*
X1168Y1144D02*
X1188Y1144D01*
X1215Y1144D02*
X1235Y1144D01*
X1167Y1143D02*
X1187Y1143D01*
X1215Y1143D02*
X1235Y1143D01*
X1167Y1142D02*
X1187Y1142D01*
X1216Y1142D02*
X1235Y1142D01*
X1167Y1141D02*
X1186Y1141D01*
X1216Y1141D02*
X1235Y1141D01*
X1167Y1140D02*
X1186Y1140D01*
X1216Y1140D02*
X1235Y1140D01*
X1167Y1139D02*
X1186Y1139D01*
X1216Y1139D02*
X1235Y1139D01*
X1167Y1138D02*
X1186Y1138D01*
X1217Y1138D02*
X1236Y1138D01*
X1167Y1137D02*
X1186Y1137D01*
X1217Y1137D02*
X1236Y1137D01*
X1167Y1136D02*
X1186Y1136D01*
X1217Y1136D02*
X1236Y1136D01*
X1167Y1135D02*
X1186Y1135D01*
X1217Y1135D02*
X1236Y1135D01*
X1167Y1134D02*
X1186Y1134D01*
X1216Y1134D02*
X1235Y1134D01*
X1167Y1133D02*
X1186Y1133D01*
X1216Y1133D02*
X1235Y1133D01*
X1167Y1132D02*
X1186Y1132D01*
X1216Y1132D02*
X1235Y1132D01*
X1167Y1131D02*
X1187Y1131D01*
X1216Y1131D02*
X1235Y1131D01*
X1167Y1130D02*
X1187Y1130D01*
X1215Y1130D02*
X1235Y1130D01*
X1168Y1129D02*
X1188Y1129D01*
X1215Y1129D02*
X1235Y1129D01*
X1168Y1128D02*
X1188Y1128D01*
X1214Y1128D02*
X1234Y1128D01*
X1168Y1127D02*
X1189Y1127D01*
X1213Y1127D02*
X1234Y1127D01*
X1168Y1126D02*
X1190Y1126D01*
X1212Y1126D02*
X1234Y1126D01*
X1169Y1125D02*
X1191Y1125D01*
X1211Y1125D02*
X1233Y1125D01*
X1169Y1124D02*
X1192Y1124D01*
X1210Y1124D02*
X1233Y1124D01*
X1170Y1123D02*
X1194Y1123D01*
X1208Y1123D02*
X1233Y1123D01*
X1170Y1122D02*
X1197Y1122D01*
X1206Y1122D02*
X1232Y1122D01*
X1171Y1121D02*
X1232Y1121D01*
X1171Y1120D02*
X1231Y1120D01*
X1172Y1119D02*
X1231Y1119D01*
X1172Y1118D02*
X1230Y1118D01*
X1173Y1117D02*
X1230Y1117D01*
X1173Y1116D02*
X1229Y1116D01*
X1174Y1115D02*
X1228Y1115D01*
X1175Y1114D02*
X1227Y1114D01*
X1176Y1113D02*
X1226Y1113D01*
X1177Y1112D02*
X1226Y1112D01*
X1178Y1111D02*
X1224Y1111D01*
X1179Y1110D02*
X1223Y1110D01*
X1180Y1109D02*
X1222Y1109D01*
X1182Y1108D02*
X1221Y1108D01*
X1183Y1107D02*
X1219Y1107D01*
X1185Y1106D02*
X1217Y1106D01*
X1187Y1105D02*
X1215Y1105D01*
X1189Y1104D02*
X1213Y1104D01*
X1192Y1103D02*
X1210Y1103D01*
X1197Y1102D02*
X1206Y1102D01*
X2094Y196D02*
X2108Y196D01*
X2194Y196D02*
X2208Y196D01*
X2294Y196D02*
X2308Y196D01*
X2091Y195D02*
X2111Y195D01*
X2191Y195D02*
X2211Y195D01*
X2291Y195D02*
X2311Y195D01*
X2088Y194D02*
X2114Y194D01*
X2188Y194D02*
X2214Y194D01*
X2288Y194D02*
X2314Y194D01*
X2086Y193D02*
X2116Y193D01*
X2186Y193D02*
X2216Y193D01*
X2286Y193D02*
X2316Y193D01*
X2084Y192D02*
X2118Y192D01*
X2184Y192D02*
X2218Y192D01*
X2284Y192D02*
X2318Y192D01*
X2082Y191D02*
X2120Y191D01*
X2182Y191D02*
X2220Y191D01*
X2282Y191D02*
X2320Y191D01*
X2081Y190D02*
X2121Y190D01*
X2181Y190D02*
X2221Y190D01*
X2281Y190D02*
X2321Y190D01*
X2079Y189D02*
X2122Y189D01*
X2179Y189D02*
X2222Y189D01*
X2279Y189D02*
X2322Y189D01*
X2078Y188D02*
X2124Y188D01*
X2178Y188D02*
X2224Y188D01*
X2278Y188D02*
X2324Y188D01*
X2077Y187D02*
X2125Y187D01*
X2177Y187D02*
X2225Y187D01*
X2277Y187D02*
X2325Y187D01*
X2076Y186D02*
X2126Y186D01*
X2176Y186D02*
X2226Y186D01*
X2276Y186D02*
X2326Y186D01*
X2075Y185D02*
X2127Y185D01*
X2175Y185D02*
X2227Y185D01*
X2275Y185D02*
X2327Y185D01*
X2074Y184D02*
X2127Y184D01*
X2174Y184D02*
X2227Y184D01*
X2274Y184D02*
X2327Y184D01*
X2074Y183D02*
X2128Y183D01*
X2174Y183D02*
X2228Y183D01*
X2274Y183D02*
X2328Y183D01*
X2073Y182D02*
X2129Y182D01*
X2173Y182D02*
X2229Y182D01*
X2273Y182D02*
X2329Y182D01*
X2072Y181D02*
X2130Y181D01*
X2172Y181D02*
X2230Y181D01*
X2272Y181D02*
X2330Y181D01*
X2072Y180D02*
X2130Y180D01*
X2172Y180D02*
X2230Y180D01*
X2272Y180D02*
X2330Y180D01*
X2071Y179D02*
X2131Y179D01*
X2171Y179D02*
X2231Y179D01*
X2271Y179D02*
X2331Y179D01*
X2071Y178D02*
X2131Y178D01*
X2171Y178D02*
X2231Y178D01*
X2271Y178D02*
X2331Y178D01*
X2070Y177D02*
X2132Y177D01*
X2170Y177D02*
X2232Y177D01*
X2270Y177D02*
X2332Y177D01*
X2070Y176D02*
X2095Y176D01*
X2107Y176D02*
X2132Y176D01*
X2170Y176D02*
X2195Y176D01*
X2207Y176D02*
X2232Y176D01*
X2270Y176D02*
X2295Y176D01*
X2307Y176D02*
X2332Y176D01*
X2069Y175D02*
X2093Y175D01*
X2109Y175D02*
X2133Y175D01*
X2169Y175D02*
X2193Y175D01*
X2209Y175D02*
X2233Y175D01*
X2269Y175D02*
X2293Y175D01*
X2309Y175D02*
X2333Y175D01*
X2069Y174D02*
X2092Y174D01*
X2110Y174D02*
X2133Y174D01*
X2169Y174D02*
X2192Y174D01*
X2210Y174D02*
X2233Y174D01*
X2269Y174D02*
X2291Y174D01*
X2310Y174D02*
X2333Y174D01*
X2068Y173D02*
X2090Y173D01*
X2111Y173D02*
X2133Y173D01*
X2168Y173D02*
X2190Y173D01*
X2211Y173D02*
X2233Y173D01*
X2268Y173D02*
X2290Y173D01*
X2311Y173D02*
X2333Y173D01*
X2068Y172D02*
X2089Y172D01*
X2112Y172D02*
X2134Y172D01*
X2168Y172D02*
X2189Y172D01*
X2212Y172D02*
X2234Y172D01*
X2268Y172D02*
X2289Y172D01*
X2312Y172D02*
X2334Y172D01*
X2068Y171D02*
X2089Y171D01*
X2113Y171D02*
X2134Y171D01*
X2168Y171D02*
X2189Y171D01*
X2213Y171D02*
X2234Y171D01*
X2268Y171D02*
X2288Y171D01*
X2313Y171D02*
X2334Y171D01*
X2068Y170D02*
X2088Y170D01*
X2114Y170D02*
X2134Y170D01*
X2168Y170D02*
X2188Y170D01*
X2214Y170D02*
X2234Y170D01*
X2267Y170D02*
X2288Y170D01*
X2314Y170D02*
X2334Y170D01*
X2067Y169D02*
X2087Y169D01*
X2115Y169D02*
X2135Y169D01*
X2167Y169D02*
X2187Y169D01*
X2215Y169D02*
X2235Y169D01*
X2267Y169D02*
X2287Y169D01*
X2315Y169D02*
X2335Y169D01*
X2067Y168D02*
X2087Y168D01*
X2115Y168D02*
X2135Y168D01*
X2167Y168D02*
X2187Y168D01*
X2215Y168D02*
X2235Y168D01*
X2267Y168D02*
X2287Y168D01*
X2315Y168D02*
X2335Y168D01*
X2067Y167D02*
X2086Y167D01*
X2116Y167D02*
X2135Y167D01*
X2167Y167D02*
X2186Y167D01*
X2216Y167D02*
X2235Y167D01*
X2267Y167D02*
X2286Y167D01*
X2316Y167D02*
X2335Y167D01*
X2067Y166D02*
X2086Y166D01*
X2116Y166D02*
X2135Y166D01*
X2167Y166D02*
X2186Y166D01*
X2216Y166D02*
X2235Y166D01*
X2267Y166D02*
X2286Y166D01*
X2316Y166D02*
X2335Y166D01*
X2067Y165D02*
X2086Y165D01*
X2116Y165D02*
X2135Y165D01*
X2167Y165D02*
X2186Y165D01*
X2216Y165D02*
X2235Y165D01*
X2267Y165D02*
X2286Y165D01*
X2316Y165D02*
X2335Y165D01*
X2067Y164D02*
X2086Y164D01*
X2116Y164D02*
X2135Y164D01*
X2167Y164D02*
X2186Y164D01*
X2216Y164D02*
X2235Y164D01*
X2266Y164D02*
X2286Y164D01*
X2316Y164D02*
X2335Y164D01*
X2066Y163D02*
X2086Y163D01*
X2116Y163D02*
X2135Y163D01*
X2166Y163D02*
X2185Y163D01*
X2216Y163D02*
X2235Y163D01*
X2266Y163D02*
X2285Y163D01*
X2316Y163D02*
X2335Y163D01*
X2066Y162D02*
X2085Y162D01*
X2116Y162D02*
X2135Y162D01*
X2166Y162D02*
X2185Y162D01*
X2216Y162D02*
X2235Y162D01*
X2266Y162D02*
X2285Y162D01*
X2316Y162D02*
X2335Y162D01*
X2066Y161D02*
X2085Y161D01*
X2116Y161D02*
X2135Y161D01*
X2166Y161D02*
X2185Y161D01*
X2216Y161D02*
X2235Y161D01*
X2266Y161D02*
X2285Y161D01*
X2316Y161D02*
X2335Y161D01*
X2067Y160D02*
X2086Y160D01*
X2116Y160D02*
X2135Y160D01*
X2167Y160D02*
X2186Y160D01*
X2216Y160D02*
X2235Y160D01*
X2266Y160D02*
X2286Y160D01*
X2316Y160D02*
X2335Y160D01*
X2067Y159D02*
X2086Y159D01*
X2116Y159D02*
X2135Y159D01*
X2167Y159D02*
X2186Y159D01*
X2216Y159D02*
X2235Y159D01*
X2267Y159D02*
X2286Y159D01*
X2316Y159D02*
X2335Y159D01*
X2067Y158D02*
X2086Y158D01*
X2116Y158D02*
X2135Y158D01*
X2167Y158D02*
X2186Y158D01*
X2216Y158D02*
X2235Y158D01*
X2267Y158D02*
X2286Y158D01*
X2316Y158D02*
X2335Y158D01*
X2067Y157D02*
X2086Y157D01*
X2116Y157D02*
X2135Y157D01*
X2167Y157D02*
X2186Y157D01*
X2216Y157D02*
X2235Y157D01*
X2267Y157D02*
X2286Y157D01*
X2316Y157D02*
X2335Y157D01*
X2067Y156D02*
X2086Y156D01*
X2115Y156D02*
X2135Y156D01*
X2167Y156D02*
X2186Y156D01*
X2215Y156D02*
X2235Y156D01*
X2267Y156D02*
X2286Y156D01*
X2315Y156D02*
X2335Y156D01*
X2067Y155D02*
X2087Y155D01*
X2115Y155D02*
X2135Y155D01*
X2167Y155D02*
X2187Y155D01*
X2215Y155D02*
X2235Y155D01*
X2267Y155D02*
X2287Y155D01*
X2315Y155D02*
X2335Y155D01*
X2067Y154D02*
X2088Y154D01*
X2114Y154D02*
X2134Y154D01*
X2167Y154D02*
X2188Y154D01*
X2214Y154D02*
X2234Y154D01*
X2267Y154D02*
X2288Y154D01*
X2314Y154D02*
X2334Y154D01*
X2068Y153D02*
X2088Y153D01*
X2114Y153D02*
X2134Y153D01*
X2168Y153D02*
X2188Y153D01*
X2213Y153D02*
X2234Y153D01*
X2268Y153D02*
X2288Y153D01*
X2313Y153D02*
X2334Y153D01*
X2068Y152D02*
X2089Y152D01*
X2113Y152D02*
X2134Y152D01*
X2168Y152D02*
X2189Y152D01*
X2213Y152D02*
X2234Y152D01*
X2268Y152D02*
X2289Y152D01*
X2313Y152D02*
X2334Y152D01*
X2068Y151D02*
X2090Y151D01*
X2112Y151D02*
X2133Y151D01*
X2168Y151D02*
X2190Y151D01*
X2212Y151D02*
X2233Y151D01*
X2268Y151D02*
X2290Y151D01*
X2312Y151D02*
X2333Y151D01*
X2069Y150D02*
X2091Y150D01*
X2111Y150D02*
X2133Y150D01*
X2169Y150D02*
X2191Y150D01*
X2211Y150D02*
X2233Y150D01*
X2269Y150D02*
X2291Y150D01*
X2310Y150D02*
X2333Y150D01*
X2069Y149D02*
X2093Y149D01*
X2109Y149D02*
X2133Y149D01*
X2169Y149D02*
X2193Y149D01*
X2209Y149D02*
X2233Y149D01*
X2269Y149D02*
X2293Y149D01*
X2309Y149D02*
X2333Y149D01*
X2070Y148D02*
X2094Y148D01*
X2107Y148D02*
X2132Y148D01*
X2169Y148D02*
X2194Y148D01*
X2207Y148D02*
X2232Y148D01*
X2269Y148D02*
X2294Y148D01*
X2307Y148D02*
X2332Y148D01*
X2070Y147D02*
X2099Y147D01*
X2103Y147D02*
X2132Y147D01*
X2170Y147D02*
X2199Y147D01*
X2203Y147D02*
X2232Y147D01*
X2270Y147D02*
X2299Y147D01*
X2303Y147D02*
X2332Y147D01*
X2070Y146D02*
X2131Y146D01*
X2170Y146D02*
X2231Y146D01*
X2270Y146D02*
X2331Y146D01*
X2071Y145D02*
X2131Y145D01*
X2171Y145D02*
X2231Y145D01*
X2271Y145D02*
X2331Y145D01*
X2072Y144D02*
X2130Y144D01*
X2172Y144D02*
X2230Y144D01*
X2271Y144D02*
X2330Y144D01*
X2072Y143D02*
X2130Y143D01*
X2172Y143D02*
X2230Y143D01*
X2272Y143D02*
X2330Y143D01*
X2073Y142D02*
X2129Y142D01*
X2173Y142D02*
X2229Y142D01*
X2273Y142D02*
X2329Y142D01*
X2073Y141D02*
X2128Y141D01*
X2173Y141D02*
X2228Y141D01*
X2273Y141D02*
X2328Y141D01*
X2074Y140D02*
X2128Y140D01*
X2174Y140D02*
X2228Y140D01*
X2274Y140D02*
X2328Y140D01*
X2075Y139D02*
X2127Y139D01*
X2175Y139D02*
X2227Y139D01*
X2275Y139D02*
X2327Y139D01*
X2076Y138D02*
X2126Y138D01*
X2176Y138D02*
X2226Y138D01*
X2276Y138D02*
X2326Y138D01*
X2077Y137D02*
X2125Y137D01*
X2177Y137D02*
X2225Y137D01*
X2277Y137D02*
X2325Y137D01*
X2078Y136D02*
X2124Y136D01*
X2178Y136D02*
X2224Y136D01*
X2278Y136D02*
X2324Y136D01*
X2079Y135D02*
X2123Y135D01*
X2179Y135D02*
X2223Y135D01*
X2279Y135D02*
X2323Y135D01*
X2080Y134D02*
X2121Y134D01*
X2180Y134D02*
X2221Y134D01*
X2280Y134D02*
X2321Y134D01*
X2082Y133D02*
X2120Y133D01*
X2182Y133D02*
X2220Y133D01*
X2282Y133D02*
X2320Y133D01*
X2084Y132D02*
X2118Y132D01*
X2184Y132D02*
X2218Y132D01*
X2284Y132D02*
X2318Y132D01*
X2085Y131D02*
X2116Y131D01*
X2185Y131D02*
X2216Y131D01*
X2285Y131D02*
X2316Y131D01*
X2087Y130D02*
X2114Y130D01*
X2187Y130D02*
X2214Y130D01*
X2287Y130D02*
X2314Y130D01*
X2090Y129D02*
X2112Y129D01*
X2190Y129D02*
X2212Y129D01*
X2290Y129D02*
X2312Y129D01*
X2093Y128D02*
X2108Y128D01*
X2193Y128D02*
X2208Y128D01*
X2293Y128D02*
X2308Y128D01*
X2100Y127D02*
X2102Y127D01*
X2200Y127D02*
X2202Y127D01*
X2300Y127D02*
X2302Y127D01*
D02*
G04 End of Copper1*
M02*