; NON-PLATED HOLES START AT T1
; THROUGH (PLATED) HOLES START AT T100
M48
INCH
T100C0.098425
T101C0.015748
T102C0.035433
T103C0.030000
T104C0.031496
T105C0.038000
%
T100
X002269Y022354
X009269Y022354
T101
X020271Y006093
X012267Y004845
X010769Y006604
X012519Y021604
X007027Y018088
X005267Y008862
X002528Y016867
X005769Y009854
X022767Y009593
X017269Y008104
X013268Y012614
X011519Y007354
X013515Y009867
X022767Y005606
X002519Y021104
X007763Y005849
X003015Y016349
X003015Y020610
X017532Y005849
X011519Y004354
X021772Y006615
X021769Y003854
X019269Y013104
X010769Y004104
X012519Y022854
X006519Y010854
X021008Y005619
X009254Y001862
T102
X001769Y008854
X001769Y006854
X001769Y017854
X009769Y006854
X009769Y008854
X009769Y015854
X001769Y007854
X009769Y013854
X001769Y018854
X007187Y022352
X009769Y011854
X001769Y011854
X009769Y014854
X001769Y019854
X009769Y005854
X001769Y020854
X001769Y009854
X009769Y012854
X001769Y012854
X009769Y007854
X004352Y022352
X009769Y016854
X001769Y013854
X001769Y010854
X009769Y009854
X001769Y016854
X001769Y005854
X017019Y004354
X014460Y004354
X001769Y015854
X009769Y010854
X001769Y014854
T103
X023019Y001604
X012019Y016354
X012019Y017354
X012019Y018354
X022019Y001604
X012019Y015354
X021019Y001604
X012019Y012354
X012019Y014354
X012019Y011353
X012019Y013354
T104
X004470Y021249
X007068Y021249
T105
X015769Y017354
X017769Y021354
X019769Y014354
X020769Y016354
X016769Y019354
X019769Y021354
X018769Y017354
X020769Y018354
X014769Y018354
X014769Y019354
X021769Y015354
X016769Y017354
X014769Y016354
X017769Y016354
X017769Y015354
X018769Y015354
X004519Y002604
X016769Y020354
X014769Y015354
X015769Y014354
X014769Y021354
X019769Y019354
X004519Y001604
X015769Y018354
X016769Y014354
X020769Y020354
X019769Y016354
X016769Y015354
X017269Y011354
X021769Y021354
X021769Y018354
X017769Y014354
X018769Y018354
X020769Y017354
X016769Y016354
X016769Y018354
X017769Y019354
X020769Y019354
X021769Y020354
X021769Y014354
X020269Y011354
X020769Y021354
X015769Y021354
X019769Y020354
X014769Y020354
X016269Y011354
X017769Y017354
X014769Y014354
X018769Y016354
X019769Y017354
X019269Y011354
X018769Y021354
X016769Y021354
X014269Y011354
X014769Y017354
X018769Y014354
X017769Y018354
X021769Y016354
X020769Y015354
X015269Y011354
X021269Y011354
X018769Y019354
X019769Y018354
X015769Y015354
X017769Y020354
X015769Y016354
X020769Y014354
X018269Y011354
X019769Y015354
X015769Y019354
X015769Y020354
X021769Y019354
X018769Y020354
X021769Y017354
T00
M30
